<?xml version="1.0" standalone="no"?>
<!DOCTYPE svg PUBLIC "-//W3C//DTD SVG 1.1//EN" "http://www.w3.org/Graphics/SVG/1.1/DTD/svg11.dtd" >
<svg xmlns="http://www.w3.org/2000/svg">
<metadata>Generated by IcoMoon</metadata>
<defs>
<font id="lerm" horiz-adv-x="1024">
<font-face units-per-em="1024" ascent="960" descent="-64" />
<missing-glyph horiz-adv-x="1024" />
<glyph unicode="&#x20;" horiz-adv-x="512" d="" />
<glyph unicode="&#xe900;" glyph-name="fa-500px" d="M253 287.2c0.2-0.6 5.6-15.2 8.6-22.6 16.8-39.8 41-75.8 71.8-106.6s66.6-55 106.6-71.8c41.4-17.4 85.2-26.4 130.4-26.4s89.2 8.8 130.4 26.4c40 16.8 75.8 41 106.6 71.8s55 66.6 71.8 106.6c17.4 41.4 26.4 85.2 26.4 130.4s-8.8 89.2-26.4 130.4c-16.8 40-41 75.8-71.8 106.6s-66.6 55-106.6 71.8c-41.4 17.4-85.2 26.4-130.4 26.4-45.8 0-91.6-9.2-132.2-26.4-32.6-13.8-87.8-49.2-120-82.6l-0.2-0.2v276h463.4c16.8 0.2 16.8 23.8 16.8 31.4 0 7.8 0 31.2-17 31.4h-501c-13.6 0-22-11.4-22-21.8v-388.2c0-12.6 15.6-21.6 30.2-24.6 28.4-6 34.8 3 41.8 12.6l1 1.2c10.6 15.8 43.6 49 44 49.4 51.6 51.6 120.6 80 194.4 80 73.4 0 142.2-28.4 193.8-80 51.8-51.8 80.4-120.4 80.4-193.2 0-73-28.4-141.8-80-193.2-50.8-50.8-122-80-195-80-49.4 0-97.2 13.2-138.2 38.2l0.2 236c0 31.4 13.6 65.8 36.6 91.6 26.2 29.6 62.2 45.8 101.6 45.8 38 0 73.6-14.4 100.2-40.6 26.2-26 40.8-60.8 40.8-97.8 0-78.8-62-140.6-141.2-140.6-15.2 0-43 6.8-44.2 7-16 4.8-22.8-17.4-25-24.8-8.6-28.2 4.4-33.8 7-34.6 25.4-8 42.2-9.4 64.2-9.4 111.8 0 202.8 91 202.8 202.8 0 111-91 201.2-202.6 201.2-54.8 0-106.2-21-144.8-58.8-36.8-36.2-57.8-84.4-57.8-132.4v-1.2c-0.2-6-0.2-147.6-0.4-194l-0.2 0.2c-21 23.2-41.8 58.8-55.6 95.2-5.4 14.2-17.6 11.8-34.2 6.6-8-2.2-30-9-25-25.2zM491.2 342.6c0-6.8 6.2-12.8 10-16.2l1.2-1.2c6.4-6.2 12.4-9.4 18-9.4 4.6 0 7.4 2.2 8.4 3.2 2.8 2.6 34.4 34.8 37.6 37.8l35.4-35.2c3.2-3.6 6.8-5.6 11-5.6 5.6 0 11.8 3.4 18.2 10 15.2 15.6 7.6 24 4 28l-35.8 35.8 37.4 37.6c8.2 8.8 1 18.2-6.2 25.4-10.4 10.4-20.6 13.2-27 7.2l-37.2-37.2-37.6 37.6c-2 2-4.6 3-7.2 3-5 0-11-3.4-17.6-10-11.6-11.6-14-19.6-8-26l37.6-37.4-37.4-37.4c-3.4-3.2-5-6.6-4.8-10zM573 850.2c-60 0-124-12.2-170.8-32.4-5-2-8-6-8.6-11.6-0.6-5.4 0.8-12.4 4.4-21.6 3-7.4 10.6-27.2 25.6-21.4 48 18.4 101.2 28.4 149.4 28.4 54.8 0 108-10.8 158-31.8 39.8-16.8 77.2-41.2 118-76.4 3-2.6 6.2-3.8 9.4-3.8 8 0 15.6 7.8 22.2 15.2 10.8 12.2 18.4 22.4 7.6 32.6-39 36.8-81.6 64.4-134.4 86.8-57.2 23.8-118.2 36-180.8 36zM896.4 108.8v0c-7.2 7.2-13.4 11.4-18.8 13s-10.4 0.4-14.2-3.4l-3.6-3.6c-37.2-37.2-80.6-66.4-128.8-86.8-50-21.2-103-31.8-157.6-31.8-54.8 0-107.8 10.8-157.6 31.8-48.2 20.4-91.6 49.6-128.8 86.8-38.8 38.8-68 82.2-86.8 128.8-18.4 45.6-24.4 79.8-26.4 91-0.2 1-0.4 1.8-0.4 2.4-2.6 13.2-14.8 14.2-32.2 11.4-7.2-1.2-29.4-4.6-27.4-20.4v-0.4c5.8-37 16.2-73.2 30.8-107.6 23.4-55.4 57-105.2 99.8-148s92.6-76.2 148-99.8c57.4-24.2 118.4-36.6 181.2-36.6s123.8 12.4 181.2 36.6c55.4 23.4 105.2 57 148 99.8 0 0 2.4 2.4 3.8 3.8 4.4 5.4 8.6 14.4-10.2 33z" />
<glyph unicode="&#xe901;" glyph-name="fa-accessibility" d="M416 864c0 53.018 42.98 96 96 96s96-42.982 96-96c0-53.020-42.98-96-96-96s-96 42.98-96 96zM640 640l329.596 142.172-23.77 59.424-401.826-137.596h-64l-401.826 137.596-23.77-59.424 329.596-142.172v-256l-131.27-424.57 59.84-22.7 185.716 415.27h27.428l185.716-415.27 59.84 22.7-131.27 424.57z" />
<glyph unicode="&#xe902;" glyph-name="fa-ad" d="M300 509v-117h-76zM680 436q0-36-24-62-24-25-64-25h-23v172h24q42 0 65-23 22-24 22-62zM425 603q0 6-4 11-5 4-11 4h-148q-8 0-12-6l-247-336q-5-8-1-16t13-8h119q8 0 12 7l25 36h129v-28q0-6 4-10 5-5 11-5h96q6 0 10 5 4 4 4 10zM792 436q0 85-55 134-56 48-145 48h-119q-7 0-11-4-5-5-5-11v-336q0-6 5-10 4-5 11-5h120q88 0 144 49 55 49 55 135zM861 447q-1 11-4 31-4 20-11 43-6 23-20 49-14 27-32 48h-19q17-26 29-55 13-30 19-50 5-20 9-41 3-20 3-26 0-7 0-10v-12q-1-12-4-33-4-20-10-43-5-23-18-50-13-26-30-46h23q19 19 33 45 13 27 19 48 7 22 10 46 3 23 4 31 0 8 0 13zM943 447q-1 11-5 31-3 20-10 43-6 23-20 49-14 27-32 48h-19q17-26 29-55 13-30 18-50 6-20 9-41 3-20 3-26 0-7 0-10v-12q0-12-4-33-4-20-9-43-6-23-19-50-12-26-29-46h22q19 19 33 45 14 27 20 48 6 22 10 46 3 23 3 31 1 8 1 13zM1023 447q0 11-4 31t-10 43q-7 23-21 49-13 27-32 48h-19q17-26 30-55 12-30 18-50 5-20 8-41 3-20 4-26 0-7 0-10l-1-12q0-12-4-33-3-20-9-43t-18-50q-13-26-29-46h22q19 19 33 45 13 27 20 48 6 22 9 46 4 23 4 31t0 13z" />
<glyph unicode="&#xe903;" glyph-name="fa-address-book" d="M192 960v-1024h768v1024zM576 703.67c70.51 0 127.67-57.16 127.67-127.67s-57.16-127.67-127.67-127.67-127.67 57.16-127.67 127.67 57.16 127.67 127.67 127.67zM768 192h-384v64c0 70.696 57.306 128 128 128v0h128c70.696 0 128-57.304 128-128zM64 896h96v-192h-96zM64 640h96v-192h-96zM64 384h96v-192h-96zM64 128h96v-192h-96z" />
<glyph unicode="&#xe904;" glyph-name="fa-aid-kit" d="M896 704h-192v128c0 35.2-28.8 64-64 64h-256c-35.2 0-64-28.8-64-64v-128h-192c-70.4 0-128-57.6-128-128v-512c0-70.4 57.6-128 128-128h768c70.4 0 128 57.6 128 128v512c0 70.4-57.6 128-128 128zM384 832h256v-128h-256zM768 256h-192v-192h-128v192h-192v128h192v192h128v-192h192z" />
<glyph unicode="&#xe905;" glyph-name="fa-airplane" d="M768 320.032l-182.82 182.822 438.82 329.15-128.010 127.996-548.52-219.442-172.7 172.706c-49.78 49.778-119.302 61.706-154.502 26.508-35.198-35.198-23.268-104.726 26.51-154.5l172.686-172.684-219.464-548.582 127.99-128.006 329.19 438.868 182.826-182.828v-255.98h127.994l63.992 191.988 191.988 63.996v127.992z" />
<glyph unicode="&#xe906;" glyph-name="fa-alarm" d="M512 832c-247.424 0-448-200.576-448-448s200.576-448 448-448 448 200.576 448 448-200.576 448-448 448zM512 24c-198.824 0-360 161.178-360 360 0 198.824 161.176 360 360 360 198.822 0 360-161.176 360-360 0-198.822-161.178-360-360-360zM934.784 672.826c16.042 28.052 25.216 60.542 25.216 95.174 0 106.040-85.96 192-192 192-61.818 0-116.802-29.222-151.92-74.596 131.884-27.236 245.206-105.198 318.704-212.578zM407.92 885.404c-35.116 45.374-90.102 74.596-151.92 74.596-106.040 0-192-85.96-192-192 0-34.632 9.174-67.122 25.216-95.174 73.5 107.38 186.822 185.342 318.704 212.578zM512 384v256h-64v-320h256v64z" />
<glyph unicode="&#xe907;" glyph-name="fa-amazon" d="M925.6 74.8c-112.2-82.8-274.6-126.8-414.6-126.8-196.2 0-372.8 72.4-506.4 193.2-10.4 9.4-1.2 22.4 11.4 15 144.2-84 322.6-134.4 506.8-134.4 124.2 0 260.8 25.8 386.6 79.2 18.8 8 34.8-12.6 16.2-26.2zM972.2 128c-14.4 18.4-94.8 8.8-131 4.4-11-1.2-12.6 8.2-2.8 15.2 64.2 45 169.4 32 181.6 17 12.4-15.2-3.2-120.6-63.4-171-9.2-7.8-18-3.6-14 6.6 13.8 33.8 44 109.4 29.6 127.8zM707.4 202.4l0.2-0.2c24.8 21.8 69.4 60.8 94.6 81.8 10 8 8.2 21.4 0.4 32.6-22.6 31.2-46.6 56.6-46.6 114.2v192c0 81.4 5.6 156-54.2 212-47.2 45.2-125.6 61.2-185.6 61.2-117.2 0-248-43.8-275.4-188.6-3-15.4 8.4-23.6 18.4-25.8l119.4-13c11.2 0.6 19.2 11.6 21.4 22.8 10.2 49.8 52 74 99 74 25.4 0 54.2-9.2 69.2-32 17.2-25.4 15-60 15-89.4v-16c-71.4-8-164.8-13.2-231.6-42.6-77.2-33.4-131.4-101.4-131.4-201.4 0-128 80.6-192 184.4-192 87.6 0 135.4 20.6 203 89.8 22.4-32.4 29.6-48.2 70.6-82.2 9.4-5 21-4.6 29.2 2.8zM583.2 502.8c0-48 1.2-88-23-130.6-19.6-34.8-50.6-56-85.2-56-47.2 0-74.8 36-74.8 89.2 0 105 94.2 124 183.2 124v-26.6z" />
<glyph unicode="&#xe908;" glyph-name="fa-android" d="M896 576c-35.2 0-64-28.8-64-64v-256c0-35.2 28.8-64 64-64s64 28.8 64 64v256c0 35.2-28.8 64-64 64zM128 576c-35.2 0-64-28.8-64-64v-256c0-35.2 28.8-64 64-64s64 28.8 64 64v256c0 35.2-28.802 64-64 64zM224 224c0-53.020 42.98-96 96-96v0-128c0-35.2 28.8-64 64-64s64 28.8 64 64v128h128v-128c0-35.2 28.8-64 64-64s64 28.8 64 64v128c53.020 0 96 42.98 96 96v352h-576zM798.216 639.998c-9.716 87.884-59.004 163.792-129.62 209.646l32.024 64.046c7.904 15.806 1.496 35.028-14.31 42.932s-35.030 1.496-42.932-14.312l-32.142-64.286-8.35 3.316c-28.568 9.502-59.122 14.66-90.886 14.66-31.762 0-62.316-5.158-90.888-14.656l-8.348-3.316-32.142 64.282c-7.904 15.808-27.128 22.212-42.932 14.312-15.808-7.904-22.214-27.126-14.312-42.932l32.022-64.046c-70.616-45.852-119.904-121.762-129.622-209.644v-32h574.222v31.998zM416 704c-17.674 0-32 14.328-32 32 0 17.648 14.288 31.958 31.93 31.996 0.032 0 0.062-0.002 0.094-0.002 0.018 0 0.036 0.002 0.052 0.002 17.638-0.042 31.924-14.35 31.924-31.996 0-17.672-14.326-32-32-32zM608 704c-17.674 0-32 14.328-32 32 0 17.646 14.286 31.954 31.924 31.996 0.016 0 0.034-0.002 0.050-0.002 0.032 0 0.064 0.002 0.096 0.002 17.64-0.038 31.93-14.348 31.93-31.996 0-17.672-14.326-32-32-32z" />
<glyph unicode="&#xe909;" glyph-name="fa-angle-left" d="M811 862q0 13-11 23l-51 52q-10 10-24 10-13 0-23-10l-478-478q-11-11-11-24t11-24l478-478q10-10 23-10 14 0 24 10l51 52q11 10 11 23 0 14-11 24l-403 403 403 403q11 10 11 24z" />
<glyph unicode="&#xe90a;" glyph-name="fa-angle-right" d="M811 435q0 13-11 24l-478 478q-10 10-23 10-14 0-24-10l-51-52q-11-10-11-23 0-14 11-24l403-403-403-403q-11-10-11-24 0-13 11-23l51-52q10-10 24-10 13 0 23 10l478 478q11 11 11 24z" />
<glyph unicode="&#xe90b;" glyph-name="fa-angry" d="M512 960c-282.77 0-512-229.23-512-512s229.23-512 512-512 512 229.23 512 512-229.23 512-512 512zM576.094 579.484c2.032 47.454 45.21 78.948 81.592 97.138 34.742 17.372 69.104 26.060 70.548 26.422 17.146 4.288 34.52-6.138 38.806-23.284s-6.138-34.518-23.284-38.806c-17.624-4.45-38.522-12.12-56.936-21.35 10.648-11.43 17.174-26.752 17.174-43.606 0-35.346-28.654-64-64-64s-64 28.654-64 64c0.002 1.17 0.038 2.332 0.1 3.486zM256.958 679.76c4.288 17.146 21.66 27.572 38.806 23.284 1.446-0.362 35.806-9.052 70.548-26.422 36.38-18.192 79.56-49.684 81.592-97.138 0.062-1.154 0.098-2.314 0.098-3.484 0-35.346-28.654-64-64-64s-64 28.654-64 64c0 16.854 6.526 32.176 17.174 43.606-18.414 9.23-39.31 16.9-56.936 21.35-17.142 4.286-27.566 21.66-23.282 38.804zM704.098 179.26c-39.174 65.148-110.544 108.74-192.098 108.74-81.556 0-152.924-43.592-192.098-108.74l-82.328 49.396c55.96 93.070 157.916 155.344 274.426 155.344 116.508 0 218.464-62.274 274.426-155.344z" />
<glyph unicode="&#xe90c;" glyph-name="fa-appleinc" d="M791.498 415.908c-1.294 129.682 105.758 191.876 110.542 194.966-60.152 88.020-153.85 100.078-187.242 101.472-79.742 8.074-155.596-46.948-196.066-46.948-40.368 0-102.818 45.754-168.952 44.552-86.916-1.292-167.058-50.538-211.812-128.38-90.304-156.698-23.126-388.84 64.89-515.926 43.008-62.204 94.292-132.076 161.626-129.58 64.842 2.588 89.362 41.958 167.756 41.958s100.428-41.958 169.050-40.67c69.774 1.296 113.982 63.398 156.692 125.796 49.39 72.168 69.726 142.038 70.924 145.626-1.548 0.706-136.060 52.236-137.408 207.134zM662.562 796.478c35.738 43.358 59.86 103.512 53.28 163.522-51.478-2.096-113.878-34.29-150.81-77.55-33.142-38.376-62.148-99.626-54.374-158.436 57.466-4.484 116.128 29.204 151.904 72.464z" />
<glyph unicode="&#xe90d;" glyph-name="fa-arrow-down" d="M512-32l480 480h-288v512h-384v-512h-288z" />
<glyph unicode="&#xe90e;" glyph-name="fa-arrow-down-left" d="M736-64l-256 256 544 544-224 224-544-544-256 255.998v-735.998z" />
<glyph unicode="&#xe90f;" glyph-name="fa-arrow-down-right" d="M1024 672l-256-256-544 544-224-224 544-544-255.998-256h735.998z" />
<glyph unicode="&#xe910;" glyph-name="fa-arrow-left" d="M32 448l480-480v288h512v384h-512v288z" />
<glyph unicode="&#xe911;" glyph-name="fa-arrow-right" d="M992 448l-480 480v-288h-512v-384h512v-288z" />
<glyph unicode="&#xe912;" glyph-name="fa-arrow-up" d="M512 928l-480-480h288v-512h384v512h288z" />
<glyph unicode="&#xe913;" glyph-name="fa-arrow-up-left" d="M0 224l256 256 544-544 224 224-544 544 255.998 256h-735.998z" />
<glyph unicode="&#xe914;" glyph-name="fa-arrow-up-right" d="M288 960l256-256-544-544 224-224 544 544 256-255.998v735.998z" />
<glyph unicode="&#xe915;" glyph-name="fa-attachment" d="M665.832 632.952l-64.952 64.922-324.81-324.742c-53.814-53.792-53.814-141.048 0-194.844 53.804-53.792 141.060-53.792 194.874 0l389.772 389.708c89.714 89.662 89.714 235.062 0 324.726-89.666 89.704-235.112 89.704-324.782 0l-409.23-409.178c-0.29-0.304-0.612-0.576-0.876-0.846-125.102-125.096-125.102-327.856 0-452.906 125.054-125.056 327.868-125.056 452.988 0 0.274 0.274 0.516 0.568 0.82 0.876l0.032-0.034 279.332 279.292-64.986 64.92-279.33-279.262c-0.296-0.268-0.564-0.57-0.846-0.844-89.074-89.058-233.98-89.058-323.076 0-89.062 89.042-89.062 233.922 0 322.978 0.304 0.304 0.604 0.582 0.888 0.846l-0.046 0.060 409.28 409.166c53.712 53.738 141.144 53.738 194.886 0 53.712-53.734 53.712-141.148 0-194.84l-389.772-389.7c-17.936-17.922-47.054-17.922-64.972 0-17.894 17.886-17.894 47.032 0 64.92z" />
<glyph unicode="&#xe916;" glyph-name="fa-backward" d="M576 800v-320l320 320v-704l-320 320v-320l-352 352z" />
<glyph unicode="&#xe917;" glyph-name="fa-baffled" d="M384 544c0-17.674-14.326-32-32-32s-32 14.326-32 32 14.326 32 32 32 32-14.326 32-32zM704 544c0-17.674-14.326-32-32-32s-32 14.326-32 32 14.326 32 32 32 32-14.326 32-32zM512 960c-282.77 0-512-229.23-512-512s229.23-512 512-512 512 229.23 512 512-229.23 512-512 512zM256 544c0 53.020 42.98 96 96 96s96-42.98 96-96-42.98-96-96-96-96 42.98-96 96zM640 192h-256v64h256zM672 448c-53.020 0-96 42.98-96 96s42.98 96 96 96 96-42.98 96-96-42.98-96-96-96z" />
<glyph unicode="&#xe918;" glyph-name="fa-barcode" d="M0 832h128v-640h-128zM192 832h64v-640h-64zM320 832h64v-640h-64zM512 832h64v-640h-64zM768 832h64v-640h-64zM960 832h64v-640h-64zM640 832h32v-640h-32zM448 832h32v-640h-32zM864 832h32v-640h-32zM0 128h64v-64h-64zM192 128h64v-64h-64zM320 128h64v-64h-64zM640 128h64v-64h-64zM960 128h64v-64h-64zM768 128h128v-64h-128zM448 128h128v-64h-128z" />
<glyph unicode="&#xe919;" glyph-name="fa-basecamp" d="M512 853.4c-186.8 0-330.8-156.4-412.4-309.6-46-86.2-78.2-180.6-93-277.2-1.6-11-3.2-22-4.4-33.2-0.6-6-1.2-12-1.6-18-0.6-7.6-0.2-10 3.8-16.4 12-19.4 26.2-37.4 42.2-53.6 32.8-33.6 72.6-59.4 114.8-79.4 96.2-45.4 204.8-61.8 310.4-65.4 109-3.6 221 5.4 325.2 39.4 89 29 174.8 79.6 224.2 161.4 5.4 8.8 1.6 21.8 0.6 32-1.2 12.2-2.8 24.2-4.8 36.2-3.6 23.6-8.4 46.8-14.2 70-11.6 47.2-27.4 93.6-46.6 138.2-69.6 161.6-198.4 334-381.6 369.6-20.6 4-41.6 6-62.6 6zM518.4 69.8c-114.2 0-238.6 10.2-341.4 65.2-40 21.4-80.8 52.4-100 95-5.6 12.4-3.6 17.2-1 31.8 1.8 9.4 2.6 18.6 6.8 27.4 5.8 12.2 11.8 24.2 18 36.2 21 40.6 43.6 80.8 69.8 118.6 13 18.6 26.8 37 42.8 53 11.2 11.2 24.8 23.2 40.6 27 48.4 11.6 85.4-44.4 114.8-72.6 14.2-13.6 33.2-29 54.4-26.4 14.6 1.8 27.6 13.2 38 22.6 35.4 31.8 63.8 71.2 93.2 108.2 14.6 18.2 29 36.6 44.8 54 10.6 11.8 22.2 25.2 36.4 32.8 25.4 13.8 57.8-14.6 75.4-29.2 30-25 56.6-54.2 82-83.8 24.2-28.2 47.6-56.8 68.2-87.8 31.8-48 59.4-99.2 84.6-151 5.4-11.2 7.2-18.8 9.2-31.2 1.2-6.8 3.8-14.6 2.8-21.6-1.4-9.8-8.2-20.4-13.2-28.4-12-19-28.2-35.4-46-49.2-74.6-57.8-175.6-77-267.4-85.6-37.6-3.6-75.2-5-112.8-5z" />
<glyph unicode="&#xe91a;" glyph-name="fa-behance" d="M297 754.8c30.2 0 57.4-2.6 82.2-8 24.8-5.2 45.8-14 63.6-26 17.6-12 31.2-28 41.2-48 9.6-19.8 14.4-44.6 14.4-74 0-31.8-7.2-58.2-21.6-79.4-14.6-21.2-35.8-38.4-64.2-52 38.8-11.2 67.4-30.8 86.6-58.6 19.2-28 28.4-61.6 28.4-101.2 0-32-6.2-59.4-18.4-82.6-12.4-23.4-29.2-42.4-49.8-57-20.8-14.8-44.8-25.6-71.6-32.6-26.6-7-54-10.6-82.4-10.6h-305.4v630zM279 500.4c24.6 0 45 5.8 61 17.6 16 11.6 23.6 30.8 23.6 57.2 0 14.6-2.6 26.8-7.8 36.2-5.4 9.4-12.4 16.8-21.4 22-8.8 5.4-18.8 9-30.6 11-11.4 2.2-23.4 3.2-35.6 3.2h-129.6v-147.2zM286.6 232.2c13.6 0 26.6 1.2 38.8 4 12.4 2.8 23.4 7 32.6 13.4 9.2 6.2 17 14.4 22.6 25.2 5.6 10.6 8.2 24.2 8.2 40.8 0 32.4-9.2 55.6-27.4 69.6-18.2 13.8-42.4 20.6-72.4 20.6h-150.4v-173.4h148zM725.2 234.4c18.8-18.4 45.8-27.6 81-27.6 25.2 0 47.2 6.4 65.4 19.2s29.2 26.4 33.4 40.4h110.4c-17.8-55-44.6-94-81.4-117.6-36.2-23.6-80.6-35.6-132-35.6-36 0-68.2 5.8-97.2 17.2-29 11.6-53.2 27.8-73.6 49-19.8 21.2-35.4 46.4-46.4 76-10.8 29.4-16.4 62-16.4 97.2 0 34.2 5.6 66 16.8 95.4 11.4 29.6 27 55 47.8 76.4s45.2 38.4 74 50.8c28.6 12.4 60.2 18.6 95.2 18.6 38.6 0 72.4-7.4 101.4-22.6 28.8-15 52.6-35.2 71.2-60.4s31.8-54.2 40-86.6 11-66.2 8.8-101.6h-329.4c0-35.8 12-70 31-88.2zM869 474c-14.8 16.4-40.2 25.4-70.8 25.4-20 0-36.6-3.4-49.8-10.2-13-6.8-23.6-15.2-31.8-25.2-8-10-13.6-20.8-16.8-32.2-3.2-11-5.2-21.2-5.8-30h204c-3 32-14 55.6-29 72.2zM668.4 704h255.4v-62.2h-255.4z" />
<glyph unicode="&#xe91b;" glyph-name="fa-bell" d="M1025.5 160c0 288-256 224-256 448 0 18.56-1.788 34.42-5.048 47.928-16.83 113.018-92.156 203.72-189.772 231.36 0.866 3.948 1.32 8.032 1.32 12.21 0 33.278-28.8 60.502-64 60.502s-64-27.224-64-60.5c0-4.18 0.456-8.264 1.32-12.21-109.47-30.998-190.914-141.298-193.254-273.442-0.040-1.92-0.066-3.864-0.066-5.846 0-224.002-256-160.002-256-448.002 0-76.226 170.59-139.996 398.97-156.080 21.524-40.404 64.056-67.92 113.030-67.92s91.508 27.516 113.030 67.92c228.38 16.084 398.97 79.854 398.97 156.080 0 0.228-0.026 0.456-0.028 0.682zM826.246 105.904c-54.23-14.47-118.158-24.876-186.768-30.648-5.704 65.418-60.582 116.744-127.478 116.744s-121.774-51.326-127.478-116.744c-68.608 5.772-132.538 16.178-186.768 30.648-74.63 19.914-110.31 42.19-123.368 54.096 13.058 11.906 48.738 34.182 123.368 54.096 86.772 23.152 198.372 35.904 314.246 35.904s227.474-12.752 314.246-35.904c74.63-19.914 110.31-42.19 123.368-54.096-13.058-11.906-48.738-34.182-123.368-54.096z" />
<glyph unicode="&#xe91c;" glyph-name="fa-bin" d="M192-64h640l64 704h-768zM640 832v128h-256v-128h-320v-192l64 64h768l64-64v192zM576 832h-128v64h128z" />
<glyph unicode="&#xe91d;" glyph-name="fa-binoculars" d="M64 960h384v-64h-384zM576 960h384v-64h-384zM952 640h-56v256h-256v-256h-256v256h-256v-256h-56c-39.6 0-72-32.4-72-72v-560c0-39.6 32.4-72 72-72h304c39.6 0 72 32.4 72 72v376h128v-376c0-39.6 32.4-72 72-72h304c39.6 0 72 32.4 72 72v560c0 39.6-32.4 72-72 72zM348 0h-248c-19.8 0-36 14.4-36 32s16.2 32 36 32h248c19.8 0 36-14.4 36-32s-16.2-32-36-32zM544 448h-64c-17.6 0-32 14.4-32 32s14.4 32 32 32h64c17.6 0 32-14.4 32-32s-14.4-32-32-32zM924 0h-248c-19.8 0-36 14.4-36 32s16.2 32 36 32h248c19.8 0 36-14.4 36-32s-16.2-32-36-32z" />
<glyph unicode="&#xe91e;" glyph-name="fa-blocked" d="M874.040 810.040c-96.706 96.702-225.28 149.96-362.040 149.96s-265.334-53.258-362.040-149.96c-96.702-96.706-149.96-225.28-149.96-362.040s53.258-265.334 149.96-362.040c96.706-96.702 225.28-149.96 362.040-149.96s265.334 53.258 362.040 149.96c96.702 96.706 149.96 225.28 149.96 362.040s-53.258 265.334-149.96 362.040zM896 448c0-82.814-26.354-159.588-71.112-222.38l-535.266 535.268c62.792 44.758 139.564 71.112 222.378 71.112 211.738 0 384-172.262 384-384zM128 448c0 82.814 26.354 159.586 71.112 222.378l535.27-535.268c-62.794-44.756-139.568-71.11-222.382-71.11-211.738 0-384 172.262-384 384z" />
<glyph unicode="&#xe91f;" glyph-name="fa-blog" d="M384 960v-96c73.482 0 144.712-14.37 211.716-42.71 64.768-27.394 122.958-66.632 172.948-116.624s89.228-108.18 116.624-172.948c28.342-67.004 42.712-138.238 42.712-211.718h96c0 353.46-286.54 640-640 640zM384 768v-96c94.022 0 182.418-36.614 248.9-103.098 66.486-66.484 103.1-154.878 103.1-248.902h96c0 247.422-200.576 448-448 448zM480 576l-64-64-224-64-192-416 25.374-25.374 232.804 232.804c-1.412 5.286-2.178 10.84-2.178 16.57 0 35.346 28.654 64 64 64s64-28.654 64-64-28.654-64-64-64c-5.732 0-11.282 0.764-16.568 2.178l-232.804-232.804 25.372-25.374 416 192 64 224 64 64z" />
<glyph unicode="&#xe920;" glyph-name="fa-blogger" d="M957.796 576h-57.406c-35.166 0-65.988 29.742-68.39 64v0c0.004 182.668-147.258 320-331.19 320h-167.824c-183.812 0-332.856-148-332.986-330.666v-362.798c0-182.654 149.174-330.536 332.984-330.536h358.42c183.948 0 332.596 147.882 332.596 330.536v234.382c0 36.502-29.44 75.082-66.204 75.082zM320 704h192c35.2 0 64-28.8 64-64s-28.8-64-64-64h-192c-35.2 0-64 28.8-64 64s28.8 64 64 64zM704 192h-384c-35.2 0-64 28.8-64 64s28.8 64 64 64h384c35.2 0 64-28.8 64-64s-28.8-64-64-64z" />
<glyph unicode="&#xe921;" glyph-name="fa-bold" d="M707.88 475.348c37.498 44.542 60.12 102.008 60.12 164.652 0 141.16-114.842 256-256 256h-320v-896h384c141.158 0 256 114.842 256 256 0 92.956-49.798 174.496-124.12 219.348zM384 768h101.5c55.968 0 101.5-57.42 101.5-128s-45.532-128-101.5-128h-101.5zM543 128h-159v256h159c58.45 0 106-57.42 106-128s-47.55-128-106-128z" />
<glyph unicode="&#xe922;" glyph-name="fa-book" d="M896 832v-832h-672c-53.026 0-96 42.98-96 96s42.974 96 96 96h608v768h-640c-70.398 0-128-57.6-128-128v-768c0-70.4 57.602-128 128-128h768v896zM224.056 128v0c-0.018-0.002-0.038 0-0.056 0-17.672 0-32-14.326-32-32s14.328-32 32-32c0.018 0 0.038 0.002 0.056 0.002v-0.002h607.89v64z" />
<glyph unicode="&#xe923;" glyph-name="fa-bookmark" d="M192 960v-1024l320 320 320-320v1024z" />
<glyph unicode="&#xe924;" glyph-name="fa-bookmarks" d="M256 832v-896l320 320 320-320v896zM768 960h-640v-896l64 64v768h576z" />
<glyph unicode="&#xe925;" glyph-name="fa-books" horiz-adv-x="1152" d="M224 832h-192c-17.6 0-32-14.4-32-32v-704c0-17.6 14.4-32 32-32h192c17.6 0 32 14.4 32 32v704c0 17.6-14.4 32-32 32zM192 640h-128v64h128zM544 832h-192c-17.6 0-32-14.4-32-32v-704c0-17.6 14.4-32 32-32h192c17.6 0 32 14.4 32 32v704c0 17.6-14.4 32-32 32zM512 640h-128v64h128zM765.088 782.52l-171.464-86.394c-15.716-7.918-22.096-27.258-14.178-42.976l287.978-571.548c7.918-15.718 27.258-22.098 42.976-14.178l171.464 86.392c15.716 7.92 22.096 27.26 14.178 42.974l-287.978 571.55c-7.92 15.718-27.26 22.1-42.976 14.18z" />
<glyph unicode="&#xe926;" glyph-name="fa-box-add" d="M832 896h-640l-192-192v-672c0-17.674 14.326-32 32-32h960c17.672 0 32 14.326 32 32v672zM512 128l-320 256h192v192h256v-192h192zM154.51 768l64 64h586.978l64-64z" />
<glyph unicode="&#xe927;" glyph-name="fa-box-remove" d="M832 896h-640l-192-192v-672c0-17.674 14.326-32 32-32h960c17.672 0 32 14.326 32 32v672zM640 320v-192h-256v192h-192l320 256 320-256zM154.51 768l64 64h586.976l64-64z" />
<glyph unicode="&#xe928;" glyph-name="fa-briefcase" d="M960 704h-256v64c0 35.2-28.8 64-64 64h-256c-35.204 0-64-28.8-64-64v-64h-256c-35.2 0-64-28.8-64-64v-576c0-35.202 28.796-64 64-64h896c35.2 0 64 28.798 64 64v576c0 35.2-28.8 64-64 64zM384 767.884c0.034 0.040 0.074 0.082 0.114 0.116h255.772c0.042-0.034 0.082-0.076 0.118-0.116v-63.884h-256.004zM960 448h-128v-96c0-17.602-14.4-32-32-32h-64c-17.604 0-32 14.398-32 32v96h-384v-96c0-17.602-14.4-32-32-32h-64c-17.602 0-32 14.398-32 32v96h-128v64h896z" />
<glyph unicode="&#xe929;" glyph-name="fa-bug" d="M1024 384v64h-193.29c-5.862 72.686-31.786 139.026-71.67 192.25h161.944l70.060 280.24-62.090 15.522-57.94-231.76h-174.68c-0.892 0.694-1.796 1.374-2.698 2.056 6.71 19.502 10.362 40.422 10.362 62.194 0.002 105.76-85.958 191.498-191.998 191.498s-192-85.738-192-191.5c0-21.772 3.65-42.692 10.362-62.194-0.9-0.684-1.804-1.362-2.698-2.056h-174.68l-57.94 231.76-62.090-15.522 70.060-280.24h161.944c-39.884-53.222-65.806-119.562-71.668-192.248h-193.29v-64h193.37c3.802-45.664 15.508-88.812 33.638-127.75h-123.992l-70.060-280.238 62.090-15.524 57.94 231.762h112.354c58.692-78.032 147.396-127.75 246.66-127.75s187.966 49.718 246.662 127.75h112.354l57.94-231.762 62.090 15.524-70.060 280.238h-123.992c18.13 38.938 29.836 82.086 33.636 127.75z" />
<glyph unicode="&#xe92a;" glyph-name="fa-bullhorn" d="M1024 530.744c0 200.926-58.792 363.938-131.482 365.226 0.292 0.006 0.578 0.030 0.872 0.030h-82.942c0 0-194.8-146.336-475.23-203.754-8.56-45.292-14.030-99.274-14.030-161.502s5.466-116.208 14.030-161.5c280.428-57.418 475.23-203.756 475.23-203.756h82.942c-0.292 0-0.578 0.024-0.872 0.032 72.696 1.288 131.482 164.298 131.482 365.224zM864.824 220.748c-9.382 0-19.532 9.742-24.746 15.548-12.63 14.064-24.792 35.96-35.188 63.328-23.256 61.232-36.066 143.31-36.066 231.124 0 87.81 12.81 169.89 36.066 231.122 10.394 27.368 22.562 49.266 35.188 63.328 5.214 5.812 15.364 15.552 24.746 15.552 9.38 0 19.536-9.744 24.744-15.552 12.634-14.064 24.796-35.958 35.188-63.328 23.258-61.23 36.068-143.312 36.068-231.122 0-87.804-12.81-169.888-36.068-231.124-10.39-27.368-22.562-49.264-35.188-63.328-5.208-5.806-15.36-15.548-24.744-15.548zM251.812 530.744c0 51.95 3.81 102.43 11.052 149.094-47.372-6.554-88.942-10.324-140.34-10.324-67.058 0-67.058 0-67.058 0l-55.466-94.686v-88.17l55.46-94.686c0 0 0 0 67.060 0 51.398 0 92.968-3.774 140.34-10.324-7.236 46.664-11.048 97.146-11.048 149.096zM368.15 317.828l-127.998 24.51 81.842-321.544c4.236-16.634 20.744-25.038 36.686-18.654l118.556 47.452c15.944 6.376 22.328 23.964 14.196 39.084zM864.824 411.27c-3.618 0-7.528 3.754-9.538 5.992-4.87 5.42-9.556 13.86-13.562 24.408-8.962 23.6-13.9 55.234-13.9 89.078s4.938 65.478 13.9 89.078c4.006 10.548 8.696 18.988 13.562 24.408 2.010 2.24 5.92 5.994 9.538 5.994 3.616 0 7.53-3.756 9.538-5.994 4.87-5.42 9.556-13.858 13.56-24.408 8.964-23.598 13.902-55.234 13.902-89.078 0-33.842-4.938-65.478-13.902-89.078-4.004-10.548-8.696-18.988-13.56-24.408-2.008-2.238-5.92-5.992-9.538-5.992z" />
<glyph unicode="&#xe92b;" glyph-name="fa-calculator" d="M384 896h-320c-35.2 0-64-28.8-64-64v-320c0-35.2 28.796-64 64-64h320c35.2 0 64 28.8 64 64v320c0 35.2-28.8 64-64 64zM384 640h-320v64h320zM896 896h-320c-35.204 0-64-28.8-64-64v-832c0-35.2 28.796-64 64-64h320c35.2 0 64 28.8 64 64v832c0 35.2-28.8 64-64 64zM896 320h-320v64h320zM896 512h-320v64h320zM384 384h-320c-35.2 0-64-28.8-64-64v-320c0-35.2 28.796-64 64-64h320c35.2 0 64 28.8 64 64v320c0 35.2-28.8 64-64 64zM384 128h-128v-128h-64v128h-128v64h128v128h64v-128h128z" />
<glyph unicode="&#xe92c;" glyph-name="fa-calendar" d="M320 576h128v-128h-128zM512 576h128v-128h-128zM704 576h128v-128h-128zM128 192h128v-128h-128zM320 192h128v-128h-128zM512 192h128v-128h-128zM320 384h128v-128h-128zM512 384h128v-128h-128zM704 384h128v-128h-128zM128 384h128v-128h-128zM832 960v-64h-128v64h-448v-64h-128v64h-128v-1024h960v1024zM896 0h-832v704h832z" />
<glyph unicode="&#xe92d;" glyph-name="fa-camera" d="M304 352c0-114.876 93.124-208 208-208s208 93.124 208 208-93.124 208-208 208-208-93.124-208-208zM960 704h-224c-16 64-32 128-96 128h-256c-64 0-80-64-96-128h-224c-35.2 0-64-28.8-64-64v-576c0-35.2 28.8-64 64-64h896c35.2 0 64 28.8 64 64v576c0 35.2-28.8 64-64 64zM512 68c-156.85 0-284 127.148-284 284 0 156.85 127.15 284 284 284 156.852 0 284-127.15 284-284 0-156.852-127.146-284-284-284zM960 512h-128v64h128z" />
<glyph unicode="&#xe92e;" glyph-name="fa-cancel-circle" d="M512 960c-282.77 0-512-229.23-512-512s229.23-512 512-512 512 229.23 512 512-229.23 512-512 512zM512 32c-229.75 0-416 186.25-416 416s186.25 416 416 416 416-186.25 416-416-186.25-416-416-416zM672 704l-160-160-160 160-96-96 160-160-160-160 96-96 160 160 160-160 96 96-160 160 160 160z" />
<glyph unicode="&#xe92f;" glyph-name="fa-cart" d="M384 32c0-53.019-42.981-96-96-96s-96 42.981-96 96 42.981 96 96 96 96-42.981 96-96zM1024 32c0-53.019-42.981-96-96-96s-96 42.981-96 96 42.981 96 96 96 96-42.981 96-96zM1024 448v384h-768c0 35.346-28.654 64-64 64h-192v-64h128l48.074-412.054c-29.294-23.458-48.074-59.5-48.074-99.946 0-70.696 57.308-128 128-128h768v64h-768c-35.346 0-64 28.654-64 64 0 0.218 0.014 0.436 0.016 0.656z" />
<glyph unicode="&#xe930;" glyph-name="fa-checkbox-checked" d="M896 960h-768c-70.4 0-128-57.6-128-128v-768c0-70.4 57.6-128 128-128h768c70.4 0 128 57.6 128 128v768c0 70.4-57.6 128-128 128zM448 165.49l-237.254 237.256 90.51 90.508 146.744-146.744 306.746 306.746 90.508-90.51z" />
<glyph unicode="&#xe931;" glyph-name="fa-checkbox-unchecked" d="M896 960h-768c-70.4 0-128-57.6-128-128v-768c0-70.4 57.6-128 128-128h768c70.4 0 128 57.6 128 128v768c0 70.4-57.6 128-128 128zM896 64h-768v768h768z" />
<glyph unicode="&#xe932;" glyph-name="fa-checkmark" d="M864 832l-480-480-224 224-160-160 384-384 640 640z" />
<glyph unicode="&#xe933;" glyph-name="fa-chevron-down" d="M1012 406q12 12 12 29t-12 29l-106 104q-12 12-28 12-17 0-29-12l-337-337-337 337q-12 12-29 12-16 0-28-12l-106-104q-12-12-12-29t12-29l471-471q12-12 29-12t29 12z" />
<glyph unicode="&#xe934;" glyph-name="fa-chevron-left" d="M646 772q12 12 12 29 0 16-12 28l-105 106q-12 12-29 12-16 0-29-12l-471-471q-12-12-12-29t12-29l471-471q13-12 29-12 17 0 29 12l105 106q12 12 12 28 0 17-12 29l-337 337z" />
<glyph unicode="&#xe935;" glyph-name="fa-chevron-right" d="M1012 406q12 12 12 29t-12 29l-471 471q-12 12-29 12t-29-12l-105-106q-12-12-12-28 0-17 12-29l337-337-337-337q-12-12-12-29 0-16 12-28l105-106q12-12 29-12t29 12z" />
<glyph unicode="&#xe936;" glyph-name="fa-chevron-up" d="M1024 252v0q0 17-12 29l-471 471q-12 12-29 12t-29-12l-471-471q-12-12-12-29t12-29l106-105q12-12 28-12 17 0 29 12l337 338 337-338q12-12 29-12 16 0 28 12l106 105q12 12 12 29z" />
<glyph unicode="&#xe937;" glyph-name="fa-chrome" d="M258.278 513.458l-146.532 253.802c93.818 117.464 238.234 192.74 400.254 192.74 187.432 0 351.31-100.736 440.532-251h-417.77c-7.504 0.65-15.092 1-22.762 1-121.874 0-224.578-83.644-253.722-196.542zM695.306 635h293.46c22.74-57.93 35.234-121.004 35.234-187 0-280.826-226.1-508.804-506.186-511.926l209.394 362.678c29.48 42.378 46.792 93.826 46.792 149.248 0 73.17-30.164 139.42-78.694 187zM326 448c0 102.56 83.44 186 186 186s186-83.44 186-186-83.44-186-186-186-186 83.44-186 186zM582.182 195.558l-146.578-253.878c-246.532 36.884-435.604 249.516-435.604 506.32 0 91.218 23.884 176.846 65.696 251.024l209.030-362.054c41.868-89.112 132.476-150.97 237.274-150.97 24.3 0 47.836 3.34 70.182 9.558z" />
<glyph unicode="&#xe938;" glyph-name="fa-circle-down" d="M1024 448c0 282.77-229.23 512-512 512s-512-229.23-512-512 229.23-512 512-512 512 229.23 512 512zM96 448c0 229.75 186.25 416 416 416s416-186.25 416-416-186.25-416-416-416-416 186.25-416 416zM317.256 605.256l-90.512-90.512 285.256-285.254 285.254 285.256-90.508 90.508-194.746-194.744z" />
<glyph unicode="&#xe939;" glyph-name="fa-circle-left" d="M512-64c282.77 0 512 229.23 512 512s-229.23 512-512 512-512-229.23-512-512 229.23-512 512-512zM512 864c229.75 0 416-186.25 416-416s-186.25-416-416-416-416 186.25-416 416 186.25 416 416 416zM669.256 642.744l-90.512 90.512-285.254-285.256 285.256-285.254 90.508 90.508-194.744 194.746z" />
<glyph unicode="&#xe93a;" glyph-name="fa-circle-right" d="M512 960c-282.77 0-512-229.23-512-512s229.23-512 512-512 512 229.23 512 512-229.23 512-512 512zM512 32c-229.75 0-416 186.25-416 416s186.25 416 416 416 416-186.25 416-416-186.25-416-416-416zM354.744 253.256l90.512-90.512 285.254 285.256-285.256 285.254-90.508-90.508 194.744-194.746z" />
<glyph unicode="&#xe93b;" glyph-name="fa-circle-up" d="M0 448c0-282.77 229.23-512 512-512s512 229.23 512 512-229.23 512-512 512-512-229.23-512-512zM928 448c0-229.75-186.25-416-416-416s-416 186.25-416 416 186.25 416 416 416 416-186.25 416-416zM706.744 290.744l90.512 90.512-285.256 285.254-285.254-285.256 90.508-90.508 194.746 194.744z" />
<glyph unicode="&#xe93c;" glyph-name="fa-clear-formatting" d="M0 64h576v-128h-576zM896 832h-302.56l-183.764-704h-132.288l183.762 704h-269.15v128h704zM929.774-64l-129.774 129.774-129.774-129.774-62.226 62.226 129.774 129.774-129.774 129.774 62.226 62.226 129.774-129.774 129.774 129.774 62.226-62.226-129.774-129.774 129.774-129.774z" />
<glyph unicode="&#xe93d;" glyph-name="fa-clipboard" d="M928 832h-288c0 70.692-57.306 128-128 128-70.692 0-128-57.308-128-128h-288c-17.672 0-32-14.328-32-32v-832c0-17.674 14.328-32 32-32h832c17.674 0 32 14.326 32 32v832c0 17.672-14.326 32-32 32zM512 896c35.346 0 64-28.654 64-64s-28.654-64-64-64-64 28.654-64 64 28.654 64 64 64zM896 0h-768v768h128v-96c0-17.672 14.328-32 32-32h448c17.674 0 32 14.328 32 32v96h128zM448 101.49l-205.254 237.254 58.508 58.51 146.746-114.744 274.742 242.744 58.514-58.508z" />
<glyph unicode="&#xe93e;" glyph-name="fa-clock" d="M658.744 210.744l-210.744 210.746v282.51h128v-229.49l173.256-173.254zM512 960c-282.77 0-512-229.23-512-512s229.23-512 512-512 512 229.23 512 512-229.23 512-512 512zM512 64c-212.078 0-384 171.922-384 384s171.922 384 384 384 384-171.922 384-384-171.922-384-384-384z" />
<glyph unicode="&#xe93f;" glyph-name="fa-cloud" d="M1024 302.458c0 82.090-56.678 150.9-132.996 169.48-3.242 128.7-108.458 232.062-237.862 232.062-75.792 0-143.266-35.494-186.854-90.732-24.442 31.598-62.69 51.96-105.708 51.96-73.81 0-133.642-59.874-133.642-133.722 0-6.436 0.48-12.76 1.364-18.954-11.222 2.024-22.766 3.138-34.57 3.138-106.998 0.002-193.732-86.786-193.732-193.842 0-107.062 86.734-193.848 193.73-193.848l656.262 0.012c96.138 0.184 174.008 78.212 174.008 174.446z" />
<glyph unicode="&#xe940;" glyph-name="fa-cloud-check" d="M892.268 445.51c2.442 11.108 3.732 22.646 3.732 34.49 0 88.366-71.634 160-160 160-14.224 0-28.014-1.868-41.134-5.352-24.796 77.352-97.288 133.352-182.866 133.352-87.348 0-161.054-58.336-184.326-138.17-22.742 6.62-46.792 10.17-71.674 10.17-141.384 0-256-114.616-256-256 0-141.382 114.616-256 256-256h608c88.366 0 160 71.632 160 160 0 78.718-56.854 144.16-131.732 157.51zM416 192l-160 160 64 64 96-96 224 224 64-64z" />
<glyph unicode="&#xe941;" glyph-name="fa-cloud-download" d="M891.004 599.94c-3.242 128.698-108.458 232.060-237.862 232.060-75.792 0-143.266-35.494-186.854-90.732-24.442 31.598-62.69 51.96-105.708 51.96-73.81 0-133.642-59.876-133.642-133.722 0-6.436 0.48-12.76 1.364-18.954-11.222 2.024-22.766 3.138-34.57 3.138-106.998 0.002-193.732-86.786-193.732-193.842 0-107.062 86.734-193.848 193.73-193.848h91.76l226.51-234.51 226.51 234.51 111.482 0.012c96.138 0.184 174.008 78.21 174.008 174.446 0 82.090-56.678 150.9-132.996 169.482zM512 128l-192 192h128v192h128v-192h128z" />
<glyph unicode="&#xe942;" glyph-name="fa-cloud-upload" d="M892.268 573.51c2.444 11.11 3.732 22.648 3.732 34.49 0 88.366-71.634 160-160 160-14.222 0-28.014-1.868-41.132-5.352-24.798 77.352-97.29 133.352-182.868 133.352-87.348 0-161.054-58.336-184.326-138.17-22.742 6.622-46.792 10.17-71.674 10.17-141.384 0-256-114.616-256-256 0-141.388 114.616-256 256-256h128v-192h256v192h224c88.366 0 160 71.632 160 160 0 78.72-56.854 144.162-131.732 157.51zM576 320v-192h-128v192h-160l224 224 224-224z" />
<glyph unicode="&#xe943;" glyph-name="fa-clubs" d="M786.832 567.228c-59.032 0-112.086-24.596-149.852-64.694-15.996-16.984-43.762-37.112-73.8-54.81 14.11 53.868 58.676 121.7 89.628 151.456 39.64 38.17 63.984 91.83 63.984 151.5 0.006 114.894-91.476 208.096-204.788 209.32-113.32-1.222-204.796-94.426-204.796-209.318 0-59.672 24.344-113.33 63.986-151.5 30.954-29.756 75.52-97.588 89.628-151.456-30.042 17.7-57.806 37.826-73.8 54.81-37.768 40.098-90.82 64.694-149.85 64.694-114.386 0-207.080-93.664-207.080-209.328 0-115.638 92.692-209.338 207.080-209.338 59.042 0 112.082 25.356 149.85 65.452 16.804 17.872 46.444 40.138 78.292 58.632-3.002-147.692-73.532-256.168-145.318-298.906v-37.742h384.014v37.74c-71.792 42.736-142.32 151.216-145.32 298.906 31.852-18.494 61.488-40.768 78.292-58.632 37.766-40.094 90.808-65.452 149.852-65.452 114.386 0 207.078 93.7 207.078 209.338-0.002 115.664-92.692 209.328-207.080 209.328z" />
<glyph unicode="&#xe944;" glyph-name="fa-codepen" d="M945.75 591.958l-448 298.666c-10.748 7.166-24.752 7.166-35.5 0l-448-298.666c-8.902-5.934-14.25-15.926-14.25-26.624v-298.666c0-10.7 5.348-20.692 14.25-26.624l448-298.666c5.374-3.584 11.562-5.376 17.75-5.376s12.376 1.792 17.75 5.376l448 298.666c8.902 5.934 14.25 15.926 14.25 26.624v298.666c0 10.698-5.348 20.69-14.25 26.624zM480 305.124l-166.312 110.876 166.312 110.874 166.312-110.874zM512 582.458v221.75l358.31-238.876-166.31-110.874zM448 582.458l-192-128-166.312 110.874 358.312 238.876zM198.312 416l-134.312-89.542v179.082zM256 377.542l192-128v-221.748l-358.312 238.872zM512 249.542l192 128 166.312-110.876-358.312-238.874zM761.688 416l134.312 89.54v-179.084z" />
<glyph unicode="&#xe945;" glyph-name="fa-cog" d="M933.79 349.75c-53.726 93.054-21.416 212.304 72.152 266.488l-100.626 174.292c-28.75-16.854-62.176-26.518-97.846-26.518-107.536 0-194.708 87.746-194.708 195.99h-201.258c0.266-33.41-8.074-67.282-25.958-98.252-53.724-93.056-173.156-124.702-266.862-70.758l-100.624-174.292c28.97-16.472 54.050-40.588 71.886-71.478 53.638-92.908 21.512-211.92-71.708-266.224l100.626-174.292c28.65 16.696 61.916 26.254 97.4 26.254 107.196 0 194.144-87.192 194.7-194.958h201.254c-0.086 33.074 8.272 66.57 25.966 97.218 53.636 92.906 172.776 124.594 266.414 71.012l100.626 174.29c-28.78 16.466-53.692 40.498-71.434 71.228zM512 240.668c-114.508 0-207.336 92.824-207.336 207.334 0 114.508 92.826 207.334 207.336 207.334 114.508 0 207.332-92.826 207.332-207.334-0.002-114.51-92.824-207.334-207.332-207.334z" />
<glyph unicode="&#xe946;" glyph-name="fa-cogs" d="M363.722 237.948l41.298 57.816-45.254 45.256-57.818-41.296c-10.722 5.994-22.204 10.774-34.266 14.192l-11.682 70.084h-64l-11.68-70.086c-12.062-3.418-23.544-8.198-34.266-14.192l-57.818 41.298-45.256-45.256 41.298-57.816c-5.994-10.72-10.774-22.206-14.192-34.266l-70.086-11.682v-64l70.086-11.682c3.418-12.060 8.198-23.544 14.192-34.266l-41.298-57.816 45.254-45.256 57.818 41.296c10.722-5.994 22.204-10.774 34.266-14.192l11.682-70.084h64l11.68 70.086c12.062 3.418 23.544 8.198 34.266 14.192l57.818-41.296 45.254 45.256-41.298 57.816c5.994 10.72 10.774 22.206 14.192 34.266l70.088 11.68v64l-70.086 11.682c-3.418 12.060-8.198 23.544-14.192 34.266zM224 96c-35.348 0-64 28.654-64 64s28.652 64 64 64 64-28.654 64-64-28.652-64-64-64zM1024 576v64l-67.382 12.25c-1.242 8.046-2.832 15.978-4.724 23.79l57.558 37.1-24.492 59.128-66.944-14.468c-4.214 6.91-8.726 13.62-13.492 20.13l39.006 56.342-45.256 45.254-56.342-39.006c-6.512 4.766-13.22 9.276-20.13 13.494l14.468 66.944-59.128 24.494-37.1-57.558c-7.812 1.892-15.744 3.482-23.79 4.724l-12.252 67.382h-64l-12.252-67.382c-8.046-1.242-15.976-2.832-23.79-4.724l-37.098 57.558-59.128-24.492 14.468-66.944c-6.91-4.216-13.62-8.728-20.13-13.494l-56.342 39.006-45.254-45.254 39.006-56.342c-4.766-6.51-9.278-13.22-13.494-20.13l-66.944 14.468-24.492-59.128 57.558-37.1c-1.892-7.812-3.482-15.742-4.724-23.79l-67.384-12.252v-64l67.382-12.25c1.242-8.046 2.832-15.978 4.724-23.79l-57.558-37.1 24.492-59.128 66.944 14.468c4.216-6.91 8.728-13.618 13.494-20.13l-39.006-56.342 45.254-45.256 56.342 39.006c6.51-4.766 13.22-9.276 20.13-13.492l-14.468-66.944 59.128-24.492 37.102 57.558c7.81-1.892 15.742-3.482 23.788-4.724l12.252-67.384h64l12.252 67.382c8.044 1.242 15.976 2.832 23.79 4.724l37.1-57.558 59.128 24.492-14.468 66.944c6.91 4.216 13.62 8.726 20.13 13.492l56.342-39.006 45.256 45.256-39.006 56.342c4.766 6.512 9.276 13.22 13.492 20.13l66.944-14.468 24.492 59.13-57.558 37.1c1.892 7.812 3.482 15.742 4.724 23.79zM672 468.8c-76.878 0-139.2 62.322-139.2 139.2s62.32 139.2 139.2 139.2 139.2-62.322 139.2-139.2-62.32-139.2-139.2-139.2z" />
<glyph unicode="&#xe947;" glyph-name="fa-coin-dollar" d="M480 896c-265.096 0-480-214.904-480-480 0-265.098 214.904-480 480-480 265.098 0 480 214.902 480 480 0 265.096-214.902 480-480 480zM480 32c-212.078 0-384 171.922-384 384s171.922 384 384 384 384-171.922 384-384-171.922-384-384-384zM512 448v128h128v64h-128v64h-64v-64h-128v-256h128v-128h-128v-64h128v-64h64v64h128.002l-0.002 256zM448 448h-64v128h64zM576.002 256h-64.002v128h64.002z" />
<glyph unicode="&#xe948;" glyph-name="fa-coin-euro" d="M480 896c-265.096 0-480-214.904-480-480s214.904-480 480-480c265.098 0 480 214.902 480 480s-214.902 480-480 480zM480 32c-212.078 0-384 171.922-384 384s171.922 384 384 384c212.076 0 384-171.922 384-384s-171.924-384-384-384zM670.824 315.66c-15.27 8.884-34.862 3.708-43.75-11.57-17.256-29.662-49.088-48.090-83.074-48.090h-128c-41.716 0-77.286 26.754-90.496 64h154.496c17.672 0 32 14.326 32 32s-14.328 32-32 32h-160v64h160c17.672 0 32 14.328 32 32s-14.328 32-32 32h-154.496c13.21 37.246 48.78 64 90.496 64h128c33.986 0 65.818-18.426 83.074-48.090 8.888-15.276 28.478-20.456 43.752-11.568 15.276 8.888 20.456 28.476 11.568 43.752-28.672 49.288-81.702 79.906-138.394 79.906h-128c-77.268 0-141.914-55.056-156.78-128h-35.22c-17.672 0-32-14.328-32-32s14.328-32 32-32h32v-64h-32c-17.672 0-32-14.326-32-32s14.328-32 32-32h35.22c14.866-72.944 79.512-128 156.78-128h128c56.692 0 109.72 30.62 138.394 79.91 8.888 15.276 3.708 34.864-11.57 43.75z" />
<glyph unicode="&#xe949;" glyph-name="fa-coin-pound" d="M480 896c-265.096 0-480-214.904-480-480s214.904-480 480-480c265.098 0 480 214.902 480 480s-214.902 480-480 480zM480 32c-212.078 0-384 171.922-384 384s171.922 384 384 384c212.074 0 384-171.922 384-384s-171.926-384-384-384zM608 256h-224v128h96c17.672 0 32 14.326 32 32s-14.328 32-32 32h-96v32c0 52.934 43.066 96 96 96 34.17 0 66.042-18.404 83.18-48.030 8.85-15.298 28.426-20.526 43.722-11.676 15.296 8.848 20.526 28.424 11.676 43.722-28.538 49.336-81.638 79.984-138.578 79.984-88.224 0-160-71.776-160-160v-32h-32c-17.672 0-32-14.326-32-32s14.328-32 32-32h32v-192h288c17.674 0 32 14.326 32 32s-14.326 32-32 32z" />
<glyph unicode="&#xe94a;" glyph-name="fa-coin-yen" d="M480 896c-265.096 0-480-214.904-480-480s214.904-480 480-480c265.098 0 480 214.902 480 480s-214.902 480-480 480zM480 32c-212.078 0-384 171.922-384 384s171.922 384 384 384c212.076 0 384-171.922 384-384s-171.924-384-384-384zM608 384c17.674 0 32 14.326 32 32s-14.326 32-32 32h-68.208l94.832 142.25c9.804 14.704 5.83 34.572-8.876 44.376-14.704 9.802-34.572 5.83-44.376-8.876l-101.372-152.062-101.374 152.062c-9.804 14.706-29.672 18.68-44.376 8.876-14.706-9.804-18.678-29.672-8.876-44.376l94.834-142.25h-68.208c-17.672 0-32-14.326-32-32s14.328-32 32-32h96v-64h-96c-17.672 0-32-14.326-32-32s14.328-32 32-32h96v-96c0-17.674 14.328-32 32-32s32 14.326 32 32v96h96c17.674 0 32 14.326 32 32s-14.326 32-32 32h-96v64z" />
<glyph unicode="&#xe94b;" glyph-name="fa-command" d="M736 64c-88.224 0-160 71.776-160 160v96h-128v-96c0-88.224-71.776-160-160-160s-160 71.776-160 160 71.776 160 160 160h96v128h-96c-88.224 0-160 71.776-160 160s71.776 160 160 160 160-71.776 160-160v-96h128v96c0 88.224 71.776 160 160 160s160-71.776 160-160-71.776-160-160-160h-96v-128h96c88.224 0 160-71.776 160-160s-71.774-160-160-160zM640 320v-96c0-52.934 43.066-96 96-96s96 43.066 96 96-43.066 96-96 96zM288 320c-52.934 0-96-43.066-96-96s43.066-96 96-96 96 43.066 96 96v96zM448 384h128v128h-128zM640 576h96c52.934 0 96 43.066 96 96s-43.066 96-96 96-96-43.066-96-96zM288 768c-52.934 0-96-43.066-96-96s43.066-96 96-96h96v96c0 52.934-43.064 96-96 96z" />
<glyph unicode="&#xe94c;" glyph-name="fa-comment" d="M0 508q0 100 69 184 68 84 186 133t257 49q104 0 199-29t163-78q69-49 109-117 41-67 41-142 0-85-52-160-51-75-141-126 6-23 15-43 8-21 15-34t19-29q11-16 17-23 6-6 20-22 14-15 18-19 0-1 4-5l8-10q3-5 2-6 0-1 2-6 1-4-1-6v-1q-2-10-10-17-7-6-17-5-37 5-65 13-150 38-263 138-43-4-83-4-139 0-257 48-118 49-186 134-69 84-69 183z" />
<glyph unicode="&#xe94d;" glyph-name="fa-comments" d="M805 545q0 79-54 147-54 67-147 106t-202 39-202-39-146-106q-54-68-54-147 0-68 41-128 40-60 111-101-6-14-12-26-6-11-14-22-8-10-13-16-4-6-15-17-10-11-13-14 0 0-2-3t-3-3q0 1-2-3l-2-3-1-3q-1-1-2-3 0-2 0-4t1-3q1-8 6-12 6-5 12-5h2q28 4 49 9 88 23 159 73 51-9 100-9 109 0 202 39t147 107q54 67 54 147zM1024 398q0 71-43 132t-116 102q13-43 13-87 0-77-39-145-38-69-109-122-67-48-151-73-85-26-177-26-17 0-50 2 115-75 270-75 49 0 100 9 71-50 159-73 21-5 49-9 7-1 13 4 6 4 7 12 0 4 1 4t0 4l-2 3-1 3q-1 1-2 3t-2 3-3 3-2 2q-3 4-13 15-11 11-15 17-5 6-13 16-8 11-14 22-6 12-12 25 71 41 111 101 41 60 41 128z" />
<glyph unicode="&#xe94e;" glyph-name="fa-compass" d="M544.010-64.004c-2.296 0-4.622 0.25-6.94 0.764-14.648 3.25-25.070 16.238-25.070 31.24v480h-480c-15.002 0-27.992 10.422-31.24 25.070-3.25 14.646 4.114 29.584 17.708 35.928l960 448c12.196 5.688 26.644 3.144 36.16-6.372 9.516-9.514 12.060-23.966 6.372-36.16l-448-960c-5.342-11.44-16.772-18.47-28.99-18.47zM176.242 512h367.758c17.674 0 32-14.328 32-32v-367.758l349.79 749.546z" />
<glyph unicode="&#xe94f;" glyph-name="fa-confused" d="M512 960c-282.77 0-512-229.23-512-512s229.226-512 512-512c282.77 0 512 229.23 512 512s-229.23 512-512 512zM704 704c35.346 0 64-28.654 64-64s-28.654-64-64-64-64 28.654-64 64 28.654 64 64 64zM320 704c35.346 0 64-28.654 64-64s-28.654-64-64-64-64 28.654-64 64 28.654 64 64 64zM687.010 149.44c-82.902-30.18-174.9 12.712-205.080 95.614-18.108 49.742-73.306 75.478-123.048 57.372-45.562-16.588-70.958-64.296-60.988-110.424h-64.86c-9.244 72.508 32.45 144.532 103.956 170.56 82.904 30.18 174.902-12.712 205.082-95.614 18.108-49.742 73.306-75.476 123.046-57.37 45.562 16.584 70.958 64.294 60.988 110.422h64.864c9.24-72.506-32.454-144.532-103.96-170.56z" />
<glyph unicode="&#xe950;" glyph-name="fa-connection" horiz-adv-x="1280" d="M640 384c105.87 0 201.87-43.066 271.402-112.598l-90.468-90.468c-46.354 46.356-110.356 75.066-180.934 75.066s-134.578-28.71-180.934-75.066l-90.468 90.468c69.532 69.532 165.532 112.598 271.402 112.598zM187.452 452.548c120.88 120.88 281.598 187.452 452.548 187.452s331.668-66.572 452.55-187.452l-90.51-90.508c-96.706 96.704-225.28 149.96-362.040 149.96-136.762 0-265.334-53.256-362.038-149.962zM988.784 825.562c106.702-45.132 202.516-109.728 284.782-191.996v0l-90.508-90.508c-145.056 145.056-337.92 224.942-543.058 224.942-205.14 0-398-79.886-543.058-224.942l-90.51 90.51c82.268 82.266 178.082 146.862 284.784 191.994 110.504 46.738 227.852 70.438 348.784 70.438s238.278-23.7 348.784-70.438zM576 64c0 35.346 28.654 64 64 64s64-28.654 64-64-28.654-64-64-64-64 28.654-64 64z" />
<glyph unicode="&#xe951;" glyph-name="fa-cool" d="M512 960c-282.77 0-512-229.23-512-512s229.226-512 512-512c282.77 0 512 229.23 512 512s-229.23 512-512 512zM512 128c-48.458 0-94.384 10.796-135.542 30.082l33.162 55.276c31.356-13.712 65.966-21.358 102.38-21.358 93.208 0 174.772 49.818 219.542 124.278l54.882-32.934c-55.964-93.070-157.914-155.344-274.424-155.344zM832 576c0-35.2-28.8-64-64-64h-128c-35.2 0-64 28.8-64 64h-128c0-35.2-28.8-64-64-64h-128c-35.2 0-64 28.8-64 64v96c0 17.6 14.4 32 32 32h192c17.6 0 32-14.4 32-32v-32h128v32c0 17.6 14.4 32 32 32h192c17.6 0 32-14.4 32-32z" />
<glyph unicode="&#xe952;" glyph-name="fa-copy" d="M640 704v256h-448l-192-192v-576h384v-256h640v768zM192 869.49v-101.49h-101.49zM64 256v448h192v192h320v-192l-192-192v-256zM576 613.49v-101.49h-101.49zM960 0h-512v448h192v192h320z" />
<glyph unicode="&#xe953;" glyph-name="fa-credit-card" d="M928 832h-832c-52.8 0-96-43.2-96-96v-576c0-52.8 43.2-96 96-96h832c52.8 0 96 43.2 96 96v576c0 52.8-43.2 96-96 96zM96 768h832c17.346 0 32-14.654 32-32v-96h-896v96c0 17.346 14.654 32 32 32zM928 128h-832c-17.346 0-32 14.654-32 32v288h896v-288c0-17.346-14.654-32-32-32zM128 320h64v-128h-64zM256 320h64v-128h-64zM384 320h64v-128h-64z" />
<glyph unicode="&#xe954;" glyph-name="fa-crop" d="M832 704l192 192-64 64-192-192h-448v192h-128v-192h-192v-128h192v-512h512v-192h128v192h192v128h-192zM320 640h320l-320-320zM384 256l320 320v-320z" />
<glyph unicode="&#xe955;" glyph-name="fa-cross" d="M1014.662 137.34c-0.004 0.004-0.008 0.008-0.012 0.010l-310.644 310.65 310.644 310.65c0.004 0.004 0.008 0.006 0.012 0.010 3.344 3.346 5.762 7.254 7.312 11.416 4.246 11.376 1.824 24.682-7.324 33.83l-146.746 146.746c-9.148 9.146-22.45 11.566-33.828 7.32-4.16-1.55-8.070-3.968-11.418-7.31 0-0.004-0.004-0.006-0.008-0.010l-310.648-310.652-310.648 310.65c-0.004 0.004-0.006 0.006-0.010 0.010-3.346 3.342-7.254 5.76-11.414 7.31-11.38 4.248-24.682 1.826-33.83-7.32l-146.748-146.748c-9.148-9.148-11.568-22.452-7.322-33.828 1.552-4.16 3.97-8.072 7.312-11.416 0.004-0.002 0.006-0.006 0.010-0.010l310.65-310.648-310.65-310.652c-0.002-0.004-0.006-0.006-0.008-0.010-3.342-3.346-5.76-7.254-7.314-11.414-4.248-11.376-1.826-24.682 7.322-33.83l146.748-146.746c9.15-9.148 22.452-11.568 33.83-7.322 4.16 1.552 8.070 3.97 11.416 7.312 0.002 0.004 0.006 0.006 0.010 0.010l310.648 310.65 310.648-310.65c0.004-0.002 0.008-0.006 0.012-0.008 3.348-3.344 7.254-5.762 11.414-7.314 11.378-4.246 24.684-1.826 33.828 7.322l146.746 146.748c9.148 9.148 11.57 22.454 7.324 33.83-1.552 4.16-3.97 8.068-7.314 11.414z" />
<glyph unicode="&#xe956;" glyph-name="fa-crying" d="M512 960c-282.77 0-512-229.23-512-512s229.23-512 512-512 512 229.23 512 512-229.23 512-512 512zM320 224c0-17.674-14.328-32-32-32s-32 14.326-32 32v64c0 17.674 14.328 32 32 32s32-14.326 32-32zM320 416c0-17.674-14.328-32-32-32s-32 14.326-32 32v64c0 17.672 14.328 32 32 32s32-14.328 32-32zM352 576h-128c-17.672 0-32 14.328-32 32s14.328 32 32 32h128c17.672 0 32-14.328 32-32s-14.328-32-32-32zM630.626 113.374c-6.248-6.25-14.436-9.374-22.626-9.374s-16.378 3.124-22.626 9.374c-4.582 4.582-29.42 14.626-73.374 14.626s-68.79-10.044-73.374-14.626c-12.496-12.496-32.758-12.496-45.254 0-12.498 12.496-12.498 32.758 0 45.254 30.122 30.12 92.994 33.372 118.628 33.372 25.632 0 88.506-3.252 118.626-33.374 12.498-12.496 12.498-32.756 0-45.252zM768 224c0-17.674-14.326-32-32-32s-32 14.326-32 32v64c0 17.674 14.326 32 32 32s32-14.326 32-32zM768 416c0-17.674-14.326-32-32-32s-32 14.326-32 32v64c0 17.672 14.326 32 32 32s32-14.328 32-32zM800 576h-128c-17.674 0-32 14.328-32 32s14.326 32 32 32h128c17.674 0 32-14.328 32-32s-14.326-32-32-32z" />
<glyph unicode="&#xe957;" glyph-name="fa-css3" d="M152.388 911.478l-34.36-171.926h699.748l-21.884-111.054h-700.188l-33.892-171.898h699.684l-39.018-196.064-282.012-93.422-244.4 93.422 16.728 85.042h-171.898l-40.896-206.352 404.226-154.704 466.006 154.704 153.768 772.252z" />
<glyph unicode="&#xe958;" glyph-name="fa-ctrl" d="M736.014 512c-8.908 0-17.77 3.698-24.096 10.928l-199.918 228.478-199.918-228.478c-11.636-13.3-31.856-14.65-45.154-3.010-13.3 11.638-14.648 31.854-3.010 45.154l224 256c6.076 6.944 14.854 10.928 24.082 10.928s18.006-3.984 24.082-10.928l224-256c11.638-13.3 10.292-33.516-3.010-45.154-6.070-5.312-13.582-7.918-21.058-7.918z" />
<glyph unicode="&#xe959;" glyph-name="fa-database" d="M512 960c-282.77 0-512-71.634-512-160v-128c0-88.366 229.23-160 512-160s512 71.634 512 160v128c0 88.366-229.23 160-512 160zM512 416c-282.77 0-512 71.634-512 160v-192c0-88.366 229.23-160 512-160s512 71.634 512 160v192c0-88.366-229.23-160-512-160zM512 128c-282.77 0-512 71.634-512 160v-192c0-88.366 229.23-160 512-160s512 71.634 512 160v192c0-88.366-229.23-160-512-160z" />
<glyph unicode="&#xe95a;" glyph-name="fa-delicious" d="M0 960v-1024h1024v1024zM512 0v448h-448v448h448v-448h448v-448z" />
<glyph unicode="&#xe95b;" glyph-name="fa-deviantart" d="M829 773.8v186.2h-186.2l-18.6-18.8-88-167.4-27.6-18.6h-313.6v-255.6h172.4l15.4-18.6-187.8-358.8v-186.2h186.2l18.6 18.8 88 167.4 27.6 18.6h313.6v255.6h-172.4l-15.4 18.8z" />
<glyph unicode="&#xe95c;" glyph-name="fa-diamonds" d="M512 960l-320-512 320-512 320 512z" />
<glyph unicode="&#xe95d;" glyph-name="fa-dice" d="M864 768h-512c-88 0-160-72-160-160v-512c0-88 72-160 160-160h512c88 0 160 72 160 160v512c0 88-72 160-160 160zM416 64c-53.020 0-96 42.98-96 96s42.98 96 96 96 96-42.98 96-96-42.98-96-96-96zM416 448c-53.020 0-96 42.98-96 96s42.98 96 96 96 96-42.98 96-96-42.98-96-96-96zM608 256c-53.020 0-96 42.98-96 96s42.98 96 96 96 96-42.98 96-96-42.98-96-96-96zM800 64c-53.020 0-96 42.98-96 96s42.98 96 96 96 96-42.98 96-96-42.98-96-96-96zM800 448c-53.020 0-96 42.98-96 96s42.98 96 96 96 96-42.98 96-96-42.98-96-96-96zM828.76 832c-14.93 72.804-79.71 128-156.76 128h-512c-88 0-160-72-160-160v-512c0-77.046 55.196-141.83 128-156.76v636.76c0 35.2 28.8 64 64 64z" />
<glyph unicode="&#xe95e;" glyph-name="fa-display" d="M0 896v-640h1024v640zM960 320h-896v512h896zM672 192h-320l-32-128-64-64h512l-64 64z" />
<glyph unicode="&#xe95f;" glyph-name="fa-double-angle-left" d="M597 8q0 14-10 24l-403 403 403 403q10 10 10 24 0 13-10 23l-51 52q-11 10-24 10t-24-10l-478-478q-10-11-10-24t10-24l478-478q11-10 24-10t24 10l51 52q10 10 10 23zM991 8q0 14-10 24l-403 403 403 403q10 10 10 24 0 13-10 23l-51 52q-11 10-24 10t-24-10l-478-478q-10-11-10-24t10-24l478-478q11-10 24-10t24 10l51 52q10 10 10 23z" />
<glyph unicode="&#xe960;" glyph-name="fa-double-angle-right" d="M630 435q0 13-10 24l-478 478q-11 10-24 10t-24-10l-51-52q-10-10-10-23 0-14 10-24l403-403-403-403q-10-10-10-24 0-13 10-23l51-52q11-10 24-10t24 10l478 478q10 11 10 24zM1024 435q0 13-10 24l-478 478q-11 10-24 10t-24-10l-51-52q-10-10-10-23 0-14 10-24l403-403-403-403q-10-10-10-24 0-13 10-23l51-52q11-10 24-10t24 10l478 478q10 11 10 24z" />
<glyph unicode="&#xe961;" glyph-name="fa-download" d="M512 384l256 256h-192v256h-128v-256h-192zM744.726 488.728l-71.74-71.742 260.080-96.986-421.066-157.018-421.066 157.018 260.080 96.986-71.742 71.742-279.272-104.728v-256l512-192 512 192v256z" />
<glyph unicode="&#xe962;" glyph-name="fa-drawer" d="M1016.988 307.99l-256 320c-6.074 7.592-15.266 12.010-24.988 12.010h-448c-9.72 0-18.916-4.418-24.988-12.010l-256-320c-4.538-5.674-7.012-12.724-7.012-19.99v-288c0-35.346 28.654-64 64-64h896c35.348 0 64 28.654 64 64v288c0 7.266-2.472 14.316-7.012 19.99zM960 256h-224l-128-128h-192l-128 128h-224v20.776l239.38 299.224h417.24l239.38-299.224zM736 448h-448c-17.672 0-32 14.328-32 32s14.328 32 32 32h448c17.674 0 32-14.328 32-32s-14.326-32-32-32zM800 320h-576c-17.672 0-32 14.326-32 32s14.328 32 32 32h576c17.674 0 32-14.326 32-32s-14.326-32-32-32z" />
<glyph unicode="&#xe963;" glyph-name="fa-dribbble" d="M512-64c-282.4 0-512 229.6-512 512s229.6 512 512 512 512-229.6 512-512-229.6-512-512-512zM943.8 378c-15 4.8-135.4 40.6-272.4 18.6 57.2-157.2 80.4-285.2 85-311.8 98 66.4 168 171.4 187.4 293.2zM682.8 44.8c-6.6 38.4-31.8 172-93.2 331.6-1-0.4-2-0.6-2.8-1-246.8-86-335.4-257-343.2-273 74.2-57.8 167.4-92.4 268.4-92.4 60.6 0 118.4 12.4 170.8 34.8zM187 155c10 17 130 215.6 355.4 288.6 5.6 1.8 11.4 3.6 17.2 5.2-11 24.8-23 49.8-35.4 74.2-218.2-65.4-430.2-62.6-449.4-62.4-0.2-4.4-0.2-8.8-0.2-13.4 0-112.2 42.6-214.8 112.4-292.2zM84 537c19.6-0.2 199.8-1 404.4 53.2-72.4 128.8-150.6 237.2-162.2 253-122.4-57.8-214-170.6-242.2-306.2zM409.6 872.6c12-16.2 91.6-124.4 163.2-256 155.6 58.2 221.4 146.8 229.2 158-77.2 68.6-178.8 110.2-290 110.2-35.2-0.2-69.6-4.4-102.4-12.2zM850.6 723.8c-9.2-12.4-82.6-106.4-244.2-172.4 10.2-20.8 20-42 29-63.4 3.2-7.6 6.4-15 9.4-22.6 145.6 18.2 290.2-11 304.6-14-1 103.2-38 198-98.8 272.4z" />
<glyph unicode="&#xe964;" glyph-name="fa-drive" d="M192 64h640c106.038 0 192 85.96 192 192h-1024c0-106.040 85.962-192 192-192zM832 192h64v-64h-64zM960 832h-896l-64-512h1024z" />
<glyph unicode="&#xe965;" glyph-name="fa-dropbox" d="M736 928l-224-192 288-192 224 192zM512 736l-224 192-288-192 224-192zM800 544l224-192-288-160-224 192zM512 384l-288 160-224-192 288-160zM728.156 114.43l-216.156 185.278-216.158-185.278-135.842 75.468v-93.898l352-160 352 160v93.898z" />
<glyph unicode="&#xe966;" glyph-name="fa-droplet" d="M864.626 486.838c-65.754 183.44-205.11 348.15-352.626 473.162-147.516-125.012-286.87-289.722-352.626-473.162-40.664-113.436-44.682-236.562 12.584-345.4 65.846-125.14 198.632-205.438 340.042-205.438s274.196 80.298 340.040 205.44c57.27 108.838 53.25 231.962 12.586 345.398zM738.764 201.044c-43.802-83.252-132.812-137.044-226.764-137.044-55.12 0-108.524 18.536-152.112 50.652 13.242-1.724 26.632-2.652 40.112-2.652 117.426 0 228.668 67.214 283.402 171.242 44.878 85.292 40.978 173.848 23.882 244.338 14.558-28.15 26.906-56.198 36.848-83.932 22.606-63.062 40.024-156.34-5.368-242.604z" />
<glyph unicode="&#xe967;" glyph-name="fa-earth" d="M512 960c-282.77 0-512-229.23-512-512s229.23-512 512-512 512 229.23 512 512-229.23 512-512 512zM512-0.002c-62.958 0-122.872 13.012-177.23 36.452l233.148 262.29c5.206 5.858 8.082 13.422 8.082 21.26v96c0 17.674-14.326 32-32 32-112.99 0-232.204 117.462-233.374 118.626-6 6.002-14.14 9.374-22.626 9.374h-128c-17.672 0-32-14.328-32-32v-192c0-12.122 6.848-23.202 17.69-28.622l110.31-55.156v-187.886c-116.052 80.956-192 215.432-192 367.664 0 68.714 15.49 133.806 43.138 192h116.862c8.488 0 16.626 3.372 22.628 9.372l128 128c6 6.002 9.372 14.14 9.372 22.628v77.412c40.562 12.074 83.518 18.588 128 18.588 70.406 0 137.004-16.26 196.282-45.2-4.144-3.502-8.176-7.164-12.046-11.036-36.266-36.264-56.236-84.478-56.236-135.764s19.97-99.5 56.236-135.764c36.434-36.432 85.218-56.264 135.634-56.26 3.166 0 6.342 0.080 9.518 0.236 13.814-51.802 38.752-186.656-8.404-372.334-0.444-1.744-0.696-3.488-0.842-5.224-81.324-83.080-194.7-134.656-320.142-134.656z" />
<glyph unicode="&#xe968;" glyph-name="fa-edge" d="M15.4 505.4c30 236.8 191.6 451.6 481.2 454.6 174.8-3.4 318.6-82.6 404.2-233.6 43-78.8 56.4-161.6 59.2-253v-107.4h-642.6c3-265 390-256 556.6-139.2v-215.8c-97.6-58.6-319-111-490.4-43.6-146 54.8-250 207.6-249.4 354.6-4.8 190.6 94.8 316.8 249.4 388.6-32.8-40.6-57.8-85.4-70.8-163h362.8c0 0 21.2 216.8-205.4 216.8-213.6-7.4-367.6-131.6-454.8-259z" />
<glyph unicode="&#xe969;" glyph-name="fa-edit" d="M510 233h-32v55h-56v32l67 67 87-87zM762 646q9-9 0-19l-201-201q-10-9-19 0t0 19l201 201q10 9 19 0zM808 305q0 12-11 17-12 5-20-4l-37-37q-5-5-5-12v-73q0-38-27-65t-65-27h-478q-38 0-65 27t-27 65v478q0 38 27 65t65 27h478q12 0 26-4 10-3 18 5l28 28q7 7 5 17-1 9-10 13-31 14-67 14h-478q-68 0-116-48-49-49-49-117v-478q0-68 49-117 48-48 116-48h478q68 0 117 48 48 49 48 117zM367 343v-165h166l385 386-165 165zM1008 653q16 16 16 39t-16 39l-87 87q-16 16-39 16t-39-16l-53-52 165-166z" />
<glyph unicode="&#xe96a;" glyph-name="fa-eject" d="M0 192h1024v-128h-1024zM512 832l512-512h-1024z" />
<glyph unicode="&#xe96b;" glyph-name="fa-ello" d="M512 960c-282.77 0-512-229.23-512-512s229.23-512 512-512 512 229.23 512 512-229.23 512-512 512zM824.636 370.402c-36.798-142.716-165.358-242.402-312.63-242.402-147.282 0-275.85 99.686-312.654 242.42-6.232 24.158 8.352 48.886 32.512 55.124 3.71 0.958 7.528 1.446 11.338 1.446 20.624 0 38.628-13.972 43.788-33.976 26.512-102.748 119.042-174.51 225.014-174.51 105.978 0 198.502 71.76 225 174.51 5.152 20.006 23.15 33.982 43.766 33.982 3.822 0 7.65-0.49 11.376-1.456 11.692-3.016 21.526-10.418 27.668-20.842 6.142-10.416 7.854-22.596 4.822-34.296z" />
<glyph unicode="&#xe96c;" glyph-name="fa-embed" horiz-adv-x="1280" d="M832 224l96-96 320 320-320 320-96-96 224-224zM448 672l-96 96-320-320 320-320 96 96-224 224zM701.298 809.481l69.468-18.944-191.987-704.026-69.468 18.944z" />
<glyph unicode="&#xe96d;" glyph-name="fa-enlarge" d="M1024 960h-416l160-160-192-192 96-96 192 192 160-160zM1024-64v416l-160-160-192 192-96-96 192-192-160-160zM0-64h416l-160 160 192 192-96 96-192-192-160 160zM0 960v-416l160 160 192-192 96 96-192 192 160 160z" />
<glyph unicode="&#xe96e;" glyph-name="fa-enter" d="M384 448h-320v128h320v128l192-192-192-192zM1024 960v-832l-384-192v192h-384v256h64v-192h320v576l256 128h-576v-256h-64v320z" />
<glyph unicode="&#xe96f;" glyph-name="fa-envelop" d="M928 832h-832c-52.8 0-96-43.2-96-96v-640c0-52.8 43.2-96 96-96h832c52.8 0 96 43.2 96 96v640c0 52.8-43.2 96-96 96zM398.74 409.628l-270.74-210.892v501.642zM176.38 704h671.24l-335.62-252zM409.288 398.302l102.712-110.302 102.71 110.302 210.554-270.302h-626.528zM625.26 409.628l270.74 290.75v-501.642z" />
<glyph unicode="&#xe970;" glyph-name="fa-equalizer" d="M448 832v16c0 26.4-21.6 48-48 48h-160c-26.4 0-48-21.6-48-48v-16h-192v-128h192v-16c0-26.4 21.6-48 48-48h160c26.4 0 48 21.6 48 48v16h576v128zM256 704v128h128v-128zM832 528c0 26.4-21.6 48-48 48h-160c-26.4 0-48-21.6-48-48v-16h-576v-128h576v-16c0-26.4 21.6-48 48-48h160c26.4 0 48 21.6 48 48v16h192v128h-192zM640 384v128h128v-128zM448 208c0 26.4-21.6 48-48 48h-160c-26.4 0-48-21.6-48-48v-16h-192v-128h192v-16c0-26.4 21.6-48 48-48h160c26.4 0 48 21.6 48 48v16h576v128h-576zM256 64v128h128v-128z" />
<glyph unicode="&#xe971;" glyph-name="fa-evil" d="M1024 896c0 45.516-9.524 88.8-26.652 128-33.576-76.836-96.448-137.932-174.494-169.178-86.194 65.96-193.936 105.178-310.854 105.178s-224.66-39.218-310.854-105.178c-78.048 31.246-140.918 92.342-174.494 169.178-17.128-39.2-26.652-82.484-26.652-128 0-73.574 24.85-141.328 66.588-195.378-42.37-74.542-66.588-160.75-66.588-252.622 0-282.77 229.23-512 512-512s512 229.23 512 512c0 91.872-24.218 178.080-66.588 252.622 41.738 54.050 66.588 121.804 66.588 195.378zM576.094 579.484c2.032 47.454 45.21 78.948 81.592 97.138 34.742 17.372 69.104 26.060 70.548 26.422 17.146 4.288 34.52-6.138 38.806-23.284s-6.138-34.518-23.284-38.806c-17.624-4.45-38.522-12.12-56.936-21.35 10.648-11.43 17.174-26.752 17.174-43.606 0-35.346-28.654-64-64-64s-64 28.654-64 64c0.002 1.17 0.038 2.332 0.1 3.486zM256.958 679.76c4.288 17.146 21.66 27.572 38.806 23.284 1.446-0.362 35.806-9.052 70.548-26.422 36.38-18.192 79.56-49.684 81.592-97.138 0.062-1.154 0.098-2.314 0.098-3.484 0-35.346-28.654-64-64-64s-64 28.654-64 64c0 16.854 6.526 32.176 17.174 43.606-18.414 9.23-39.31 16.9-56.936 21.35-17.142 4.286-27.566 21.66-23.282 38.804zM512 128c-116.51 0-218.464 62.274-274.426 155.344l82.328 49.396c39.174-65.148 110.542-108.74 192.098-108.74 81.554 0 152.924 43.592 192.098 108.74l82.328-49.396c-55.962-93.070-157.916-155.344-274.426-155.344z" />
<glyph unicode="&#xe972;" glyph-name="fa-exit" d="M768 320v128h-320v128h320v128l192-192zM704 384v-256h-320v-192l-384 192v832h704v-320h-64v256h-512l256-128v-576h256v192z" />
<glyph unicode="&#xe973;" glyph-name="fa-eye" d="M512 768c-223.318 0-416.882-130.042-512-320 95.118-189.958 288.682-320 512-320 223.312 0 416.876 130.042 512 320-95.116 189.958-288.688 320-512 320zM764.45 598.296c60.162-38.374 111.142-89.774 149.434-150.296-38.292-60.522-89.274-111.922-149.436-150.296-75.594-48.218-162.89-73.704-252.448-73.704-89.56 0-176.858 25.486-252.452 73.704-60.158 38.372-111.138 89.772-149.432 150.296 38.292 60.524 89.274 111.924 149.434 150.296 3.918 2.5 7.876 4.922 11.86 7.3-9.96-27.328-15.41-56.822-15.41-87.596 0-141.382 114.616-256 256-256 141.382 0 256 114.618 256 256 0 30.774-5.452 60.268-15.408 87.598 3.978-2.378 7.938-4.802 11.858-7.302zM512 544c0-53.020-42.98-96-96-96s-96 42.98-96 96 42.98 96 96 96 96-42.982 96-96z" />
<glyph unicode="&#xe974;" glyph-name="fa-eye-blocked" d="M945.942 945.942c-18.746 18.744-49.136 18.744-67.882 0l-202.164-202.164c-51.938 15.754-106.948 24.222-163.896 24.222-223.318 0-416.882-130.042-512-320 41.122-82.124 100.648-153.040 173.022-207.096l-158.962-158.962c-18.746-18.746-18.746-49.136 0-67.882 9.372-9.374 21.656-14.060 33.94-14.060s24.568 4.686 33.942 14.058l864 864c18.744 18.746 18.744 49.138 0 67.884zM416 640c42.24 0 78.082-27.294 90.92-65.196l-121.724-121.724c-37.902 12.838-65.196 48.68-65.196 90.92 0 53.020 42.98 96 96 96zM110.116 448c38.292 60.524 89.274 111.924 149.434 150.296 3.918 2.5 7.876 4.922 11.862 7.3-9.962-27.328-15.412-56.822-15.412-87.596 0-54.89 17.286-105.738 46.7-147.418l-60.924-60.924c-52.446 36.842-97.202 83.882-131.66 138.342zM768 518c0 27.166-4.256 53.334-12.102 77.898l-321.808-321.808c24.568-7.842 50.742-12.090 77.91-12.090 141.382 0 256 114.618 256 256zM830.026 670.026l-69.362-69.362c1.264-0.786 2.53-1.568 3.786-2.368 60.162-38.374 111.142-89.774 149.434-150.296-38.292-60.522-89.274-111.922-149.436-150.296-75.594-48.218-162.89-73.704-252.448-73.704-38.664 0-76.902 4.76-113.962 14.040l-76.894-76.894c59.718-21.462 123.95-33.146 190.856-33.146 223.31 0 416.876 130.042 512 320-45.022 89.916-112.118 166.396-193.974 222.026z" />
<glyph unicode="&#xe975;" glyph-name="fa-eyedropper" d="M986.51 922.51c-49.988 49.986-131.032 49.986-181.020 0l-172.118-172.118-121.372 121.372-135.764-135.764 106.426-106.426-472.118-472.118c-8.048-8.048-11.468-18.958-10.3-29.456h-0.244v-160c0-17.674 14.328-32 32-32h160c0 0 2.664 0 4 0 9.212 0 18.426 3.516 25.456 10.544l472.118 472.118 106.426-106.426 135.764 135.764-121.372 121.372 172.118 172.118c49.986 49.988 49.986 131.032 0 181.020zM173.090 0h-109.090v109.090l469.574 469.572 109.088-109.088z" />
<glyph unicode="&#xe976;" glyph-name="fa-eye-minus" d="M640 832h384v-128h-384zM870.32 640h-294.32v124.388c-21.014 2.376-42.364 3.612-64 3.612-223.318 0-416.882-130.042-512-320 95.118-189.958 288.682-320 512-320 223.31 0 416.876 130.042 512 320-37.396 74.686-90.020 140.1-153.68 192zM416 640c53.020 0 96-42.982 96-96 0-53.020-42.98-96-96-96s-96 42.98-96 96 42.98 96 96 96zM764.448 297.704c-75.594-48.218-162.89-73.704-252.448-73.704-89.56 0-176.86 25.486-252.454 73.704-60.156 38.372-111.136 89.772-149.43 150.296 38.292 60.524 89.274 111.924 149.434 150.296 3.918 2.5 7.876 4.922 11.862 7.3-9.962-27.328-15.412-56.822-15.412-87.596 0-141.382 114.616-256 256-256 141.38 0 256 114.618 256 256 0 30.774-5.454 60.268-15.408 87.598 3.976-2.378 7.938-4.802 11.858-7.302 60.162-38.374 111.142-89.774 149.434-150.296-38.292-60.522-89.274-111.922-149.436-150.296z" />
<glyph unicode="&#xe977;" glyph-name="fa-eye-plus" d="M1024 832h-128v128h-128v-128h-128v-128h128v-128h128v128h128zM863.862 513.972c18.436-20.478 35.192-42.53 50.022-65.972-38.292-60.522-89.274-111.922-149.436-150.296-75.594-48.218-162.89-73.704-252.448-73.704-89.56 0-176.86 25.486-252.454 73.704-60.156 38.372-111.136 89.772-149.43 150.296 38.292 60.524 89.274 111.924 149.434 150.296 3.918 2.5 7.876 4.922 11.862 7.3-9.962-27.328-15.412-56.822-15.412-87.596 0-141.382 114.616-256 256-256 141.38 0 256 114.618 256 256 0 0.692-0.018 1.38-0.024 2.072-109.284 28.138-190.298 126.63-191.932 244.31-21.026 2.38-42.394 3.618-64.044 3.618-223.318 0-416.882-130.042-512-320 95.118-189.958 288.682-320 512-320 223.31 0 416.876 130.042 512 320-17.64 35.23-38.676 68.394-62.65 99.054-29.28-17.178-62.272-28.71-97.488-33.082zM416 640c53.020 0 96-42.982 96-96 0-53.020-42.98-96-96-96s-96 42.98-96 96 42.98 96 96 96z" />
<glyph unicode="&#xe978;" glyph-name="fa-facebook" d="M608 768h160v192h-160c-123.514 0-224-100.486-224-224v-96h-128v-192h128v-512h192v512h160l32 192h-192v96c0 17.346 14.654 32 32 32z" />
<glyph unicode="&#xe979;" glyph-name="fa-feed" d="M384 448c0 70.692 57.308 128 128 128s128-57.308 128-128-57.308-128-128-128-128 57.308-128 128zM664.348 729.474c99.852-54.158 167.652-159.898 167.652-281.474s-67.8-227.316-167.652-281.474c44.066 70.126 71.652 170.27 71.652 281.474s-27.586 211.348-71.652 281.474zM288 448c0-111.204 27.584-211.348 71.652-281.474-99.852 54.16-167.652 159.898-167.652 281.474s67.8 227.314 167.652 281.474c-44.068-70.126-71.652-170.27-71.652-281.474zM96 448c0-171.9 54.404-326.184 140.652-431.722-142.302 90.948-236.652 250.314-236.652 431.722s94.35 340.774 236.652 431.722c-86.248-105.538-140.652-259.822-140.652-431.722zM787.352 879.72c142.298-90.946 236.648-250.312 236.648-431.72s-94.35-340.774-236.648-431.72c86.244 105.536 140.648 259.82 140.648 431.72s-54.404 326.184-140.648 431.72z" />
<glyph unicode="&#xe97a;" glyph-name="fa-file-empty" d="M917.806 730.924c-22.212 30.292-53.174 65.7-87.178 99.704s-69.412 64.964-99.704 87.178c-51.574 37.82-76.592 42.194-90.924 42.194h-496c-44.112 0-80-35.888-80-80v-864c0-44.112 35.888-80 80-80h736c44.112 0 80 35.888 80 80v624c0 14.332-4.372 39.35-42.194 90.924zM785.374 785.374c30.7-30.7 54.8-58.398 72.58-81.374h-153.954v153.946c22.984-17.78 50.678-41.878 81.374-72.572zM896 16c0-8.672-7.328-16-16-16h-736c-8.672 0-16 7.328-16 16v864c0 8.672 7.328 16 16 16 0 0 495.956 0.002 496 0v-224c0-17.672 14.326-32 32-32h224z" />
<glyph unicode="&#xe97b;" glyph-name="fa-file-excel" d="M743.028 576h-135.292l-95.732-141.032-95.742 141.032h-135.29l162.162-242.464-182.972-269.536h251.838v91.576h-50.156l50.156 74.994 111.396-166.57h140.444l-182.976 269.536zM917.806 730.924c-22.21 30.292-53.174 65.7-87.178 99.704s-69.412 64.964-99.704 87.178c-51.574 37.82-76.592 42.194-90.924 42.194h-496c-44.112 0-80-35.888-80-80v-864c0-44.112 35.886-80 80-80h736c44.112 0 80 35.888 80 80v624c0 14.332-4.372 39.35-42.194 90.924zM785.374 785.374c30.7-30.7 54.8-58.398 72.58-81.374h-153.954v153.946c22.982-17.78 50.678-41.878 81.374-72.572zM896 16c0-8.672-7.328-16-16-16h-736c-8.672 0-16 7.328-16 16v864c0 8.672 7.328 16 16 16 0 0 495.956 0.002 496 0v-224c0-17.672 14.324-32 32-32h224z" />
<glyph unicode="&#xe97c;" glyph-name="fa-file-music" d="M917.806 730.924c-22.21 30.292-53.174 65.7-87.178 99.704s-69.412 64.964-99.704 87.178c-51.574 37.82-76.592 42.194-90.924 42.194h-496c-44.112 0-80-35.888-80-80v-864c0-44.112 35.886-80 80-80h736c44.112 0 80 35.888 80 80v624c0 14.332-4.372 39.35-42.194 90.924zM785.374 785.374c30.7-30.7 54.8-58.398 72.58-81.374h-153.954v153.946c22.982-17.78 50.678-41.878 81.374-72.572zM896 16c0-8.672-7.328-16-16-16h-736c-8.672 0-16 7.328-16 16v864c0 8.672 7.328 16 16 16 0 0 495.956 0.002 496 0v-224c0-17.672 14.324-32 32-32h224zM756.288 568.748c-7.414 6.080-17.164 8.514-26.562 6.632l-320-64c-14.958-2.994-25.726-16.126-25.726-31.38v-236.876c-18.832 8.174-40.678 12.876-64 12.876-70.692 0-128-42.98-128-96s57.308-96 128-96 128 42.98 128 96v229.766l256 51.202v-133.842c-18.832 8.174-40.678 12.876-64 12.876-70.692 0-128-42.98-128-96s57.308-96 128-96 128 42.98 128 96v319.998c0 9.586-4.298 18.668-11.712 24.748z" />
<glyph unicode="&#xe97d;" glyph-name="fa-file-openoffice" d="M690.22 488.318c-60.668 28.652-137.97 34.42-194.834-6.048 69.14 6.604 144.958-4.838 195.106-57.124 48 55.080 124.116 65.406 192.958 59.732-57.488 38.144-133.22 33.024-193.23 3.44zM665.646 354.25c-68.376 1.578-134.434-23.172-191.1-60.104-107.176 45.588-242.736 37.124-334.002-38.982 26.33 0.934 52.006 7.446 78.056 10.792 95.182 9.488 196.588-14.142 268.512-79.824 29.772 43.542 71.644 78.242 119.652 99.922 63.074 30.52 134.16 33.684 202.82 34.52-41.688 28.648-94.614 33.954-143.938 33.676zM917.806 730.924c-22.21 30.292-53.174 65.7-87.178 99.704s-69.412 64.964-99.704 87.178c-51.574 37.82-76.592 42.194-90.924 42.194h-496c-44.112 0-80-35.888-80-80v-864c0-44.112 35.886-80 80-80h736c44.112 0 80 35.888 80 80v624c0 14.332-4.372 39.35-42.194 90.924zM785.374 785.374c30.7-30.7 54.8-58.398 72.58-81.374h-153.954v153.946c22.982-17.78 50.678-41.878 81.374-72.572zM896 16c0-8.672-7.328-16-16-16h-736c-8.672 0-16 7.328-16 16v864c0 8.672 7.328 16 16 16 0 0 495.956 0.002 496 0v-224c0-17.672 14.324-32 32-32h224z" />
<glyph unicode="&#xe97e;" glyph-name="fa-file-pdf" d="M842.012 370.52c-13.648 13.446-43.914 20.566-89.972 21.172-31.178 0.344-68.702-2.402-108.17-7.928-17.674 10.198-35.892 21.294-50.188 34.658-38.462 35.916-70.568 85.772-90.576 140.594 1.304 5.12 2.414 9.62 3.448 14.212 0 0 21.666 123.060 15.932 164.666-0.792 5.706-1.276 7.362-2.808 11.796l-1.882 4.834c-5.894 13.592-17.448 27.994-35.564 27.208l-10.916 0.344c-20.202 0-36.664-10.332-40.986-25.774-13.138-48.434 0.418-120.892 24.98-214.738l-6.288-15.286c-17.588-42.876-39.63-86.060-59.078-124.158l-2.528-4.954c-20.46-40.040-39.026-74.028-55.856-102.822l-17.376-9.188c-1.264-0.668-31.044-16.418-38.028-20.644-59.256-35.38-98.524-75.542-105.038-107.416-2.072-10.17-0.53-23.186 10.014-29.212l16.806-8.458c7.292-3.652 14.978-5.502 22.854-5.502 42.206 0 91.202 52.572 158.698 170.366 77.93 25.37 166.652 46.458 244.412 58.090 59.258-33.368 132.142-56.544 178.142-56.544 8.168 0 15.212 0.78 20.932 2.294 8.822 2.336 16.258 7.368 20.792 14.194 8.926 13.432 10.734 31.932 8.312 50.876-0.72 5.622-5.21 12.574-10.068 17.32zM211.646 145.952c7.698 21.042 38.16 62.644 83.206 99.556 2.832 2.296 9.808 8.832 16.194 14.902-47.104-75.124-78.648-105.066-99.4-114.458zM478.434 760.314c13.566 0 21.284-34.194 21.924-66.254s-6.858-54.56-16.158-71.208c-7.702 24.648-11.426 63.5-11.426 88.904 0 0-0.566 48.558 5.66 48.558zM398.852 322.506c9.45 16.916 19.282 34.756 29.33 53.678 24.492 46.316 39.958 82.556 51.478 112.346 22.91-41.684 51.444-77.12 84.984-105.512 4.186-3.542 8.62-7.102 13.276-10.65-68.21-13.496-127.164-29.91-179.068-49.862zM828.902 326.348c-4.152-2.598-16.052-4.1-23.708-4.1-24.708 0-55.272 11.294-98.126 29.666 16.468 1.218 31.562 1.838 45.102 1.838 24.782 0 32.12 0.108 56.35-6.072 24.228-6.18 24.538-18.734 20.382-21.332zM917.806 730.924c-22.21 30.292-53.174 65.7-87.178 99.704s-69.412 64.964-99.704 87.178c-51.574 37.82-76.592 42.194-90.924 42.194h-496c-44.112 0-80-35.888-80-80v-864c0-44.112 35.886-80 80-80h736c44.112 0 80 35.888 80 80v624c0 14.332-4.372 39.35-42.194 90.924zM785.374 785.374c30.7-30.7 54.8-58.398 72.58-81.374h-153.954v153.946c22.982-17.78 50.678-41.878 81.374-72.572zM896 16c0-8.672-7.328-16-16-16h-736c-8.672 0-16 7.328-16 16v864c0 8.672 7.328 16 16 16 0 0 495.956 0.002 496 0v-224c0-17.672 14.324-32 32-32h224z" />
<glyph unicode="&#xe97f;" glyph-name="fa-file-picture" d="M832 64h-640v128l192 320 263-320 185 128zM832 480c0-53.020-42.98-96-96-96-53.022 0-96 42.98-96 96s42.978 96 96 96c53.020 0 96-42.98 96-96zM917.806 730.924c-22.212 30.292-53.174 65.7-87.178 99.704s-69.412 64.964-99.704 87.178c-51.574 37.82-76.592 42.194-90.924 42.194h-496c-44.112 0-80-35.888-80-80v-864c0-44.112 35.888-80 80-80h736c44.112 0 80 35.888 80 80v624c0 14.332-4.372 39.35-42.194 90.924zM785.374 785.374c30.7-30.7 54.8-58.398 72.58-81.374h-153.954v153.946c22.984-17.78 50.678-41.878 81.374-72.572zM896 16c0-8.672-7.328-16-16-16h-736c-8.672 0-16 7.328-16 16v864c0 8.672 7.328 16 16 16 0 0 495.956 0.002 496 0v-224c0-17.672 14.326-32 32-32h224z" />
<glyph unicode="&#xe980;" glyph-name="fa-file-play" d="M384 576l320-224-320-224zM917.806 730.924c-22.212 30.292-53.174 65.7-87.178 99.704s-69.412 64.964-99.704 87.178c-51.574 37.82-76.592 42.194-90.924 42.194h-496c-44.112 0-80-35.888-80-80v-864c0-44.112 35.888-80 80-80h736c44.112 0 80 35.888 80 80v624c0 14.332-4.372 39.35-42.194 90.924zM785.374 785.374c30.7-30.7 54.8-58.398 72.58-81.374h-153.954v153.946c22.984-17.78 50.678-41.878 81.374-72.572zM896 16c0-8.672-7.328-16-16-16h-736c-8.672 0-16 7.328-16 16v864c0 8.672 7.328 16 16 16 0 0 495.956 0.002 496 0v-224c0-17.672 14.326-32 32-32h224z" />
<glyph unicode="&#xe981;" glyph-name="fa-files-empty" d="M917.806 602.924c-22.21 30.292-53.174 65.7-87.178 99.704s-69.412 64.964-99.704 87.178c-51.574 37.82-76.592 42.194-90.924 42.194h-368c-44.114 0-80-35.888-80-80v-736c0-44.112 35.886-80 80-80h608c44.112 0 80 35.888 80 80v496c0 14.332-4.372 39.35-42.194 90.924zM785.374 657.374c30.7-30.7 54.8-58.398 72.58-81.374h-153.954v153.946c22.982-17.78 50.678-41.878 81.374-72.572zM896 16c0-8.672-7.328-16-16-16h-608c-8.672 0-16 7.328-16 16v736c0 8.672 7.328 16 16 16 0 0 367.956 0.002 368 0v-224c0-17.672 14.324-32 32-32h224zM602.924 917.804c-51.574 37.822-76.592 42.196-90.924 42.196h-368c-44.112 0-80-35.888-80-80v-736c0-38.632 27.528-70.958 64-78.39v814.39c0 8.672 7.328 16 16 16h486.876c-9.646 7.92-19.028 15.26-27.952 21.804z" />
<glyph unicode="&#xe982;" glyph-name="fa-file-text" d="M864 960h-768c-52.8 0-96-43.2-96-96v-832c0-52.8 43.2-96 96-96h768c52.8 0 96 43.2 96 96v832c0 52.8-43.2 96-96 96zM832 64h-704v768h704zM256 512h448v-64h-448zM256 384h448v-64h-448zM256 256h448v-64h-448zM256 640h448v-64h-448z" />
<glyph unicode="&#xe983;" glyph-name="fa-file-video" d="M917.806 730.924c-22.208 30.292-53.174 65.7-87.178 99.704s-69.412 64.964-99.704 87.178c-51.574 37.82-76.594 42.194-90.924 42.194h-496c-44.112 0-80-35.888-80-80v-864c0-44.112 35.882-80 80-80h736c44.112 0 80 35.888 80 80v624c0 14.332-4.372 39.35-42.194 90.924v0zM785.374 785.374c30.7-30.7 54.8-58.398 72.58-81.374h-153.954v153.946c22.98-17.78 50.678-41.878 81.374-72.572v0zM896 16c0-8.672-7.328-16-16-16h-736c-8.672 0-16 7.328-16 16v864c0 8.672 7.328 16 16 16 0 0 495.956 0.002 496 0v-224c0-17.672 14.32-32 32-32h224zM256 448h320v-320h-320zM576 320l192 128v-320l-192 128z" />
<glyph unicode="&#xe984;" glyph-name="fa-file-word" d="M639.778 484.108h44.21l-51.012-226.178-66.324 318.010h-106.55l-77.114-318.010-57.816 318.010h-111.394l113.092-511.88h108.838l76.294 302.708 68.256-302.708h100.336l129.628 511.88h-170.446zM917.806 730.924c-22.21 30.292-53.174 65.7-87.178 99.704s-69.412 64.964-99.704 87.178c-51.574 37.82-76.592 42.194-90.924 42.194h-496c-44.112 0-80-35.888-80-80v-864c0-44.112 35.886-80 80-80h736c44.112 0 80 35.888 80 80v624c0 14.332-4.372 39.35-42.194 90.924zM785.374 785.374c30.7-30.7 54.8-58.398 72.58-81.374h-153.954v153.946c22.982-17.78 50.678-41.878 81.374-72.572zM896 16c0-8.672-7.328-16-16-16h-736c-8.672 0-16 7.328-16 16v864c0 8.672 7.328 16 16 16 0 0 495.956 0.002 496 0v-224c0-17.672 14.324-32 32-32h224z" />
<glyph unicode="&#xe985;" glyph-name="fa-file-zip" d="M917.806 730.924c-22.208 30.292-53.174 65.7-87.178 99.704s-69.412 64.964-99.704 87.178c-51.574 37.82-76.592 42.194-90.924 42.194h-496c-44.112 0-80-35.888-80-80v-864c0-44.112 35.884-80 80-80h736c44.112 0 80 35.888 80 80v624c0 14.332-4.372 39.35-42.194 90.924v0zM785.374 785.374c30.7-30.7 54.8-58.398 72.58-81.374h-153.954v153.946c22.98-17.78 50.678-41.878 81.374-72.572v0zM896 16c0-8.672-7.328-16-16-16h-736c-8.672 0-16 7.328-16 16v864c0 8.672 7.328 16 16 16 0 0 495.956 0.002 496 0v-224c0-17.672 14.322-32 32-32h224zM256 896h128v-64h-128zM384 832h128v-64h-128zM256 768h128v-64h-128zM384 704h128v-64h-128zM256 640h128v-64h-128zM384 576h128v-64h-128zM256 512h128v-64h-128zM384 448h128v-64h-128zM256 112c0-26.4 21.6-48 48-48h160c26.4 0 48 21.6 48 48v160c0 26.4-21.6 48-48 48h-80v64h-128zM448 192v-64h-128v64z" />
<glyph unicode="&#xe986;" glyph-name="fa-film" d="M0 832v-768h1024v768zM192 128h-128v128h128zM192 384h-128v128h128zM192 640h-128v128h128zM768 128h-512v640h512zM960 128h-128v128h128zM960 384h-128v128h128zM960 640h-128v128h128zM384 640v-384l256 192z" />
<glyph unicode="&#xe987;" glyph-name="fa-filter" d="M512 960c-282.77 0-512-71.634-512-160v-96l384-384v-320c0-35.346 57.306-64 128-64 70.692 0 128 28.654 128 64v320l384 384v96c0 88.366-229.23 160-512 160zM94.384 821.176c23.944 13.658 57.582 26.62 97.278 37.488 87.944 24.076 201.708 37.336 320.338 37.336 118.628 0 232.394-13.26 320.338-37.336 39.696-10.868 73.334-23.83 97.28-37.488 15.792-9.006 24.324-16.624 28.296-21.176-3.972-4.552-12.506-12.168-28.296-21.176-23.946-13.658-57.584-26.62-97.28-37.488-87.942-24.076-201.708-37.336-320.338-37.336s-232.394 13.26-320.338 37.336c-39.696 10.868-73.334 23.83-97.278 37.488-15.792 9.008-24.324 16.624-28.298 21.176 3.974 4.552 12.506 12.168 28.298 21.176z" />
<glyph unicode="&#xe988;" glyph-name="fa-finder" d="M569.226 181.744c-0.002 0.044-0.002 0.088-0.004 0.132 0.002-0.044 0.002-0.088 0.004-0.132zM570.596 145.462c-0.012 0.234-0.022 0.466-0.032 0.702 0.010-0.234 0.020-0.466 0.032-0.702zM569.814 163.688c-0.006 0.178-0.012 0.356-0.020 0.536 0.010-0.182 0.016-0.358 0.020-0.536zM960 960h-896c-35.2 0-64-28.8-64-64v-896c0-35.2 28.8-64 64-64h493.832c0.044 0 0.088-0.006 0.132-0.006 0.042 0 0.084 0.006 0.126 0.006h401.91c35.2 0 64 28.8 64 64v896c0 35.2-28.8 64-64 64zM192 736c0 17.672 14.328 32 32 32s32-14.328 32-32v-64c0-17.672-14.328-32-32-32s-32 14.328-32 32zM960 0h-375.058c-6.7 42.082-10.906 85.476-13.388 127.604 0.006-0.116 0.010-0.228 0.018-0.344-19.696-2.146-39.578-3.26-59.572-3.26-133.65 0-262.382 48.656-362.484 137.006-14.906 13.156-16.326 35.906-3.168 50.812 13.158 14.904 35.906 16.326 50.814 3.168 86.936-76.728 198.748-118.986 314.838-118.986 19.086 0 38.052 1.166 56.816 3.416-2.192 118.194 6.876 211.914 7.026 213.404 0.898 8.996-2.050 17.952-8.118 24.654-6.066 6.702-14.682 10.526-23.724 10.526h-95.174c1.384 34.614 5.082 93.814 14.958 160.188 18.864 126.76 51.994 225.77 96.152 287.812h400.064zM800 640c-17.674 0-32 14.328-32 32v64c0 17.672 14.326 32 32 32s32-14.328 32-32v-64c0-17.672-14.326-32-32-32zM540.496 124.768c-3.646-0.192-7.298-0.336-10.956-0.454 3.658 0.116 7.31 0.264 10.956 0.454zM512 124c4.692 0 9.374 0.074 14.050 0.196-4.676-0.122-9.358-0.196-14.050-0.196zM539.074 196.798c0.784 0.044 1.568 0.084 2.352 0.132-0.782-0.048-1.568-0.088-2.352-0.132zM525.084 196.2c1.074 0.030 2.146 0.072 3.218 0.11-1.072-0.038-2.144-0.082-3.218-0.11zM877.65 311.818c-13.156 14.91-35.908 16.322-50.812 3.168-72.642-64.114-162.658-104.136-258.022-115.57 0.43-23.278 1.294-47.496 2.754-72.156 111.954 12.21 217.786 58.614 302.912 133.746 14.908 13.156 16.326 35.906 3.168 50.812zM571.498 127.252c-4.606-0.5-9.222-0.936-13.848-1.322 4.626 0.384 9.244 0.822 13.848 1.322zM555.488 125.758c-3.906-0.312-7.822-0.576-11.742-0.806 3.92 0.226 7.834 0.496 11.742 0.806z" />
<glyph unicode="&#xe989;" glyph-name="fa-fire" d="M321.008-64c-68.246 142.008-31.902 223.378 20.55 300.044 57.44 83.956 72.244 167.066 72.244 167.066s45.154-58.7 27.092-150.508c79.772 88.8 94.824 230.28 82.782 284.464 180.314-126.012 257.376-398.856 153.522-601.066 552.372 312.532 137.398 780.172 65.154 832.85 24.082-52.676 28.648-141.85-20-185.126-82.352 312.276-285.972 376.276-285.972 376.276 24.082-161.044-87.296-337.144-194.696-468.73-3.774 64.216-7.782 108.528-41.55 169.98-7.58-116.656-96.732-211.748-120.874-328.628-32.702-158.286 24.496-274.18 241.748-396.622z" />
<glyph unicode="&#xe98a;" glyph-name="fa-firefox" d="M1022.526 625.86l-11.86-76.080c0 0-16.954 140.856-37.732 193.514-31.846 80.688-46.014 80.040-46.108 79.922 21.33-54.204 17.462-83.324 17.462-83.324s-37.792 102.998-137.712 135.768c-110.686 36.282-170.57 26.364-177.488 24.486-1.050 0.008-2.064 0.010-3.030 0.010 0.818-0.062 1.612-0.146 2.426-0.212-0.034-0.020-0.090-0.042-0.082-0.052 0.45-0.548 122.306-21.302 143.916-50.996 0 0-51.76 0-103.272-14.842-2.328-0.666 189.524-23.964 228.746-215.674 0 0-21.030 43.876-47.040 51.328 17.106-52.036 12.714-150.776-3.576-199.85-2.096-6.312-4.24 27.282-36.328 41.75 10.28-73.646-0.616-190.456-51.708-222.632-3.982-2.504 32.030 115.31 7.242 69.762-142.708-218.802-311.404-100.972-387.248-49.11 38.866-8.462 112.654 1.318 145.314 25.612 0.042 0.030 0.078 0.056 0.118 0.086 35.468 24.252 56.472 41.964 75.334 37.772 18.874-4.214 31.438 14.726 16.78 31.53-14.676 16.838-50.314 39.978-98.524 27.366-34-8.904-76.134-46.522-140.448-8.432-49.364 29.25-54.012 53.546-54.45 70.376 1.218 5.966 2.754 11.536 4.576 16.624 5.682 15.87 22.912 20.658 32.494 24.438 16.256-2.792 30.262-7.862 44.968-15.406 0.19 4.894 0.252 11.39-0.018 18.76 1.41 2.802 0.538 11.252-1.722 21.58-1.302 10.308-3.42 20.974-6.752 30.692 0.012 0.002 0.020 0.010 0.030 0.014 0.056 0.018 0.108 0.040 0.156 0.070 0.078 0.044 0.146 0.112 0.208 0.19 0.012 0.020 0.030 0.034 0.044 0.052 0.082 0.124 0.154 0.272 0.198 0.466 1.020 4.618 12.022 13.524 25.718 23.1 12.272 8.58 26.702 17.696 38.068 24.752 10.060 6.248 17.72 10.882 19.346 12.098 0.618 0.466 1.358 1.012 2.164 1.636 0.15 0.116 0.3 0.232 0.454 0.354 0.094 0.074 0.19 0.148 0.286 0.226 5.41 4.308 13.484 12.448 15.178 29.578 0.004 0.042 0.010 0.080 0.012 0.122 0.050 0.504 0.092 1.014 0.13 1.534 0.028 0.362 0.050 0.726 0.072 1.096 0.014 0.284 0.032 0.566 0.044 0.856 0.030 0.674 0.050 1.364 0.060 2.064 0 0.040 0.002 0.076 0.004 0.116 0.022 1.658-0.006 3.386-0.104 5.202-0.054 1.014-0.126 1.93-0.298 2.762-0.008 0.044-0.018 0.092-0.028 0.136-0.018 0.082-0.036 0.164-0.058 0.244-0.036 0.146-0.076 0.292-0.122 0.43-0.006 0.018-0.010 0.032-0.016 0.046-0.052 0.16-0.112 0.314-0.174 0.464-0.004 0.006-0.004 0.010-0.006 0.016-1.754 4.108-8.32 5.658-35.442 6.118-0.026 0.002-0.050 0.002-0.076 0.002v0c-11.066 0.188-25.538 0.194-44.502 0.118-33.25-0.134-51.628 32.504-57.494 45.132 8.040 44.46 31.276 76.142 69.45 97.626 0.722 0.406 0.58 0.742-0.274 0.978 7.464 4.514-90.246 0.124-135.186-57.036-39.888 9.914-74.654 9.246-104.616 2.214-5.754 0.162-12.924 0.88-21.434 2.652-19.924 18.056-48.448 51.402-49.976 91.208 0 0-0.092-0.072-0.252-0.204-0.020 0.382-0.056 0.76-0.072 1.142 0 0-60.716-46.664-51.628-173.882-0.022-2.036-0.064-3.986-0.12-5.874-16.432-22.288-24.586-41.020-25.192-45.156-14.56-29.644-29.334-74.254-41.356-141.98 0 0 8.408 26.666 25.284 56.866-12.412-38.022-22.164-97.156-16.436-185.856 0 0 1.514 19.666 6.874 47.994 4.186-55.010 22.518-122.924 68.858-202.788 88.948-153.32 225.67-230.74 376.792-242.616 26.836-2.212 54.050-2.264 81.424-0.186 2.516 0.178 5.032 0.364 7.55 0.574 30.964 2.174 62.134 6.852 93.238 14.366 425.172 102.798 378.942 616.198 378.942 616.198z" />
<glyph unicode="&#xe98b;" glyph-name="fa-flag" d="M0 960h128v-1024h-128zM832 316.998c82.624 0 154.57 19.984 192 49.5v512c-37.43-29.518-109.376-49.502-192-49.502s-154.57 19.984-192 49.502v-512c37.43-29.516 109.376-49.5 192-49.5zM608 927.472c-46.906 19.94-115.52 32.528-192 32.528-96.396 0-180.334-19.984-224-49.502v-512c43.666 29.518 127.604 49.502 224 49.502 76.48 0 145.094-12.588 192-32.528z" />
<glyph unicode="&#xe98c;" glyph-name="fa-flattr" d="M367.562 960c-243.358 0-367.562-140.162-367.562-401.856v0-549.034l238.39 238.628v278.896c0 108.416 28.73 177.406 125.118 192.894v0c33.672 6.584 103.75 4.278 148.306 4.278v0-165.596c0-1.51 0.208-4.206 0.594-5.586v0c1.87-6.704 7.93-11.616 15.116-11.63v0c4.062-0.008 7.868 2.104 11.79 5.97v0l413.122 412.974zM785.61 648.254v-278.89c0-108.414-28.736-177.414-125.116-192.894v0c-33.672-6.582-103.756-4.278-148.312-4.278v0 165.594c0 1.5-0.206 4.204-0.594 5.582v0c-1.864 6.712-7.922 11.622-15.112 11.63v0c-4.064 0.008-7.866-2.112-11.79-5.966v0l-413.124-412.966 584.874-0.066c243.354 0 367.564 140.168 367.564 401.852v0 549.028z" />
<glyph unicode="&#xe98d;" glyph-name="fa-flickr" d="M0 416c0 123.712 100.288 224 224 224s224-100.288 224-224-100.288-224-224-224-224 100.288-224 224zM576 416c0 123.712 100.288 224 224 224s224-100.288 224-224-100.288-224-224-224-224 100.288-224 224z" />
<glyph unicode="&#xe98e;" glyph-name="fa-floppy-disk" d="M896 960h-896v-1024h1024v896zM512 832h128v-256h-128zM896 64h-768v768h64v-320h576v320h74.978l53.022-53.018z" />
<glyph unicode="&#xe98f;" glyph-name="fa-folder" d="M448 832l128-128h448v-704h-1024v832z" />
<glyph unicode="&#xe990;" glyph-name="fa-folder-download" d="M576 704l-128 128h-448v-832h1024v704zM512 96l-224 224h160v256h128v-256h160z" />
<glyph unicode="&#xe991;" glyph-name="fa-folder-minus" d="M576 704l-128 128h-448v-832h1024v704zM704 256h-384v128h384z" />
<glyph unicode="&#xe992;" glyph-name="fa-folder-open" d="M832 0l192 512h-832l-192-512zM128 576l-128-576v832h288l128-128h416v-128z" />
<glyph unicode="&#xe993;" glyph-name="fa-folder-plus" d="M576 704l-128 128h-448v-832h1024v704zM704 256h-128v-128h-128v128h-128v128h128v128h128v-128h128z" />
<glyph unicode="&#xe994;" glyph-name="fa-folder-upload" d="M576 704l-128 128h-448v-832h1024v704zM512 480l224-224h-160v-256h-128v256h-160z" />
<glyph unicode="&#xe995;" glyph-name="fa-font" d="M799.596 943.792c-90.526 0-148.62 16.208-241.848 16.208-301.284 0-441.792-171.584-441.792-345.872 0-102.678 48.64-136.458 144.564-136.458-6.758 14.864-18.914 31.080-18.914 104.034 0 204.010 77.006 263.458 175.636 267.51 0 0-80.918-793.374-315.778-888.542v-24.672h316.594l108.026 512h197.844l44.072 128h-214.908l51.944 246.19c59.446-12.156 117.542-24.316 167.532-24.316 62.148 0 118.894 18.914 149.968 162.126-37.826-12.16-78.362-16.208-122.94-16.208z" />
<glyph unicode="&#xe996;" glyph-name="fa-font-size" d="M64 448h384v-128h-128v-384h-128v384h-128zM960 704h-251.75v-768h-136.5v768h-251.75v128h640z" />
<glyph unicode="&#xe997;" glyph-name="fa-forward" d="M262.14 960c-113.728-206.032-132.89-520.304 313.86-509.824v253.824l384-384-384-384v248.372c-534.96-13.942-594.572 472.214-313.86 775.628z" />
<glyph unicode="&#xe998;" glyph-name="fa-forward3" d="M512 96v320l-320-320v704l320-320v320l352-352z" />
<glyph unicode="&#xe999;" glyph-name="fa-foursquare" d="M851.564 869.91c-12.060 16.404-31.204 26.090-51.564 26.090h-608c-35.346 0-64-28.654-64-64v-768c0-25.884 15.592-49.222 39.508-59.128 7.918-3.28 16.234-4.874 24.478-4.874 16.656 0 33.026 6.504 45.268 18.748l237.256 237.254h165.49c27.992 0 52.736 18.192 61.086 44.91l160 512c6.074 19.432 2.538 40.596-9.522 57zM672.948 640h-224.948c-35.346 0-64-28.654-64-64s28.654-64 64-64h184.948l-40-128h-144.948c-16.974 0-33.252-6.742-45.254-18.746l-146.746-146.744v549.49h456.948z" />
<glyph unicode="&#xe99a;" glyph-name="fa-frustrated" d="M256 304v-96c0-8.674 7.328-16 16-16h112v128h-112c-8.672 0-16-7.326-16-16zM448 320h128v-128h-128zM752 320h-112v-128h112c8.674 0 16 7.326 16 16v96c0 8.674-7.326 16-16 16zM512 960c-282.77 0-512-229.23-512-512s229.23-512 512-512 512 229.23 512 512-229.23 512-512 512zM576.096 579.484c2.034 47.454 45.212 78.946 81.592 97.138 34.742 17.37 69.102 26.060 70.548 26.422 17.146 4.288 34.518-6.138 38.806-23.284 4.284-17.144-6.14-34.518-23.284-38.804-17.624-4.45-38.522-12.12-56.936-21.35 10.648-11.43 17.174-26.752 17.174-43.606 0-35.346-28.654-64-64-64s-64 28.654-64 64c0.002 1.17 0.040 2.33 0.1 3.484zM256.958 679.76c4.288 17.146 21.66 27.572 38.806 23.284 1.446-0.362 35.806-9.052 70.548-26.422 36.38-18.192 79.56-49.684 81.592-97.138 0.062-1.154 0.098-2.314 0.098-3.484 0-35.346-28.654-64-64-64s-64 28.654-64 64c0 16.854 6.526 32.176 17.174 43.606-18.414 9.23-39.31 16.9-56.936 21.35-17.142 4.286-27.566 21.66-23.282 38.804zM832 208c0-44.112-35.888-80-80-80h-480c-44.112 0-80 35.888-80 80v96c0 44.112 35.888 80 80 80h480c44.112 0 80-35.888 80-80z" />
<glyph unicode="&#xe99b;" glyph-name="fa-gift" d="M771.516 640c18.126 12.88 35.512 27.216 51.444 43.148 33.402 33.402 55.746 74.5 62.912 115.722 7.858 45.186-3.672 87.14-31.63 115.1-22.3 22.298-52.51 34.086-87.364 34.086-49.632 0-101.922-23.824-143.46-65.362-66.476-66.476-105.226-158.238-126.076-223.722-15.44 65.802-46.206 154.644-106.018 214.458-32.094 32.092-73.114 48.57-111.846 48.57-31.654 0-61.78-11.004-84.26-33.486-49.986-49.988-43.232-137.786 15.086-196.104 20.792-20.792 45.098-38.062 70.72-52.412h-217.024v-256h64v-448h768v448.002h64v256zM674.326 831.782c27.724 27.724 62.322 44.274 92.55 44.274 10.7 0 25.708-2.254 36.45-12.998 26.030-26.028 11.412-86.308-31.28-128.998-43.946-43.946-103.060-74.168-154.432-94.060h-50.672c18.568 57.548 52.058 136.456 107.384 191.782zM233.934 799.11c-0.702 9.12-0.050 26.248 12.196 38.494 10.244 10.244 23.788 12.396 33.348 12.396v0c21.258 0 43.468-10.016 60.932-27.48 33.872-33.872 61.766-87.772 80.668-155.876 0.51-1.84 1.008-3.67 1.496-5.486-1.816 0.486-3.646 0.984-5.486 1.496-68.104 18.904-122.002 46.798-155.874 80.67-15.828 15.826-25.77 36.16-27.28 55.786zM448 0h-256v416h256zM448 448h-320v128h320zM832 0h-256v416h256zM896 448h-320v128h320z" />
<glyph unicode="&#xe99c;" glyph-name="fa-git" d="M1004.692 493.606l-447.096 447.080c-25.738 25.754-67.496 25.754-93.268 0l-103.882-103.876 78.17-78.17c12.532 5.996 26.564 9.36 41.384 9.36 53.020 0 96-42.98 96-96 0-14.82-3.364-28.854-9.362-41.386l127.976-127.974c12.532 5.996 26.566 9.36 41.386 9.36 53.020 0 96-42.98 96-96s-42.98-96-96-96-96 42.98-96 96c0 14.82 3.364 28.854 9.362 41.386l-127.976 127.974c-3.042-1.456-6.176-2.742-9.384-3.876v-266.968c37.282-13.182 64-48.718 64-90.516 0-53.020-42.98-96-96-96s-96 42.98-96 96c0 41.796 26.718 77.334 64 90.516v266.968c-37.282 13.18-64 48.72-64 90.516 0 14.82 3.364 28.852 9.36 41.384l-78.17 78.17-295.892-295.876c-25.75-25.776-25.75-67.534 0-93.288l447.12-447.080c25.738-25.75 67.484-25.75 93.268 0l445.006 445.006c25.758 25.762 25.758 67.54-0.002 93.29z" />
<glyph unicode="&#xe99d;" glyph-name="fa-github" d="M512.008 947.358c-282.738 0-512.008-229.218-512.008-511.998 0-226.214 146.704-418.132 350.136-485.836 25.586-4.738 34.992 11.11 34.992 24.632 0 12.204-0.48 52.542-0.696 95.324-142.448-30.976-172.504 60.41-172.504 60.41-23.282 59.176-56.848 74.916-56.848 74.916-46.452 31.778 3.51 31.124 3.51 31.124 51.4-3.61 78.476-52.766 78.476-52.766 45.672-78.27 119.776-55.64 149.004-42.558 4.588 33.086 17.852 55.68 32.506 68.464-113.73 12.942-233.276 56.85-233.276 253.032 0 55.898 20.004 101.574 52.76 137.428-5.316 12.9-22.854 64.972 4.952 135.5 0 0 43.006 13.752 140.84-52.49 40.836 11.348 84.636 17.036 128.154 17.234 43.502-0.198 87.336-5.886 128.256-17.234 97.734 66.244 140.656 52.49 140.656 52.49 27.872-70.528 10.35-122.6 5.036-135.5 32.82-35.856 52.694-81.532 52.694-137.428 0-196.654-119.778-239.95-233.79-252.624 18.364-15.89 34.724-47.046 34.724-94.812 0-68.508-0.596-123.644-0.596-140.508 0-13.628 9.222-29.594 35.172-24.566 203.322 67.776 349.842 259.626 349.842 485.768 0 282.78-229.234 511.998-511.992 511.998z" />
<glyph unicode="&#xe99e;" glyph-name="fa-glass" d="M777.784 943.144c-5.576 10.38-16.406 16.856-28.19 16.856h-475.188c-11.784 0-22.614-6.476-28.19-16.856-35.468-66.020-54.216-143.184-54.216-223.144 0-105.412 32.372-204.828 91.154-279.938 45.428-58.046 102.48-96.54 164.846-112.172v-327.89h-96c-17.672 0-32-14.326-32-32s14.328-32 32-32h320c17.674 0 32 14.326 32 32s-14.326 32-32 32h-96v327.89c62.368 15.632 119.418 54.124 164.846 112.172 58.782 75.11 91.154 174.526 91.154 279.938 0 79.96-18.748 157.122-54.216 223.144zM294.1 896h435.8c24.974-52.902 38.1-113.338 38.1-176 0-5.364-0.108-10.696-0.296-16h-511.406c-0.19 5.304-0.296 10.636-0.296 16-0.002 62.664 13.126 123.098 38.098 176z" />
<glyph unicode="&#xe99f;" glyph-name="fa-google" d="M522.2 521.2v-175.6h290.4c-11.8-75.4-87.8-220.8-290.4-220.8-174.8 0-317.4 144.8-317.4 323.2s142.6 323.2 317.4 323.2c99.4 0 166-42.4 204-79l139 133.8c-89.2 83.6-204.8 134-343 134-283 0-512-229-512-512s229-512 512-512c295.4 0 491.6 207.8 491.6 500.2 0 33.6-3.6 59.2-8 84.8z" />
<glyph unicode="&#xe9a0;" glyph-name="fa-google-drive" d="M438 320l-184.6-320h580.6l184.6 320zM992.4 384l-295.6 512h-369.6l295.6-512zM290.2 832l-290.2-502.8 184.8-320 290.2 502.8z" />
<glyph unicode="&#xe9a1;" glyph-name="fa-google-plus" d="M928 960h-832c-52.8 0-96-43.2-96-96v-832c0-52.8 43.2-96 96-96h832c52.8 0 96 43.2 96 96v832c0 52.8-43.2 96-96 96zM384 192c-141.6 0-256 114.4-256 256s114.4 256 256 256c69.2 0 127-25.2 171.6-67l-69.6-66.8c-19 18.2-52.2 39.4-102 39.4-87.4 0-158.8-72.4-158.8-161.6s71.4-161.6 158.8-161.6c101.4 0 139.4 72.8 145.2 110.4h-145.2v87.8h241.8c2.2-12.8 4-25.6 4-42.4 0-146.4-98-250.2-245.8-250.2zM896 448h-64v-64h-64v64h-64v64h64v64h64v-64h64z" />
<glyph unicode="&#xe9a2;" glyph-name="fa-grin" d="M512 960c-282.77 0-512-229.23-512-512s229.226-512 512-512c282.77 0 512 229.23 512 512s-229.23 512-512 512zM704 724c63.962 0 116-52.038 116-116 0-6.378-0.546-12.876-1.628-19.312-1.618-9.632-9.958-16.688-19.724-16.688s-18.108 7.056-19.722 16.69c-6.16 36.684-37.67 53.31-74.926 53.31s-68.766-16.626-74.924-53.31c-1.616-9.632-9.956-16.69-19.722-16.69-0.002 0 0 0-0.002 0-9.766 0-18.106 7.056-19.722 16.688-1.084 6.436-1.63 12.934-1.63 19.312 0 63.962 52.038 116 116 116zM320 724c63.962 0 116-52.038 116-116 0-6.378-0.548-12.876-1.628-19.312-1.618-9.632-9.956-16.688-19.724-16.688s-18.106 7.056-19.722 16.69c-6.16 36.684-37.67 53.31-74.926 53.31s-68.766-16.626-74.924-53.31c-1.616-9.632-9.956-16.69-19.722-16.69 0 0 0 0 0 0-9.766 0-18.106 7.056-19.724 16.688-1.082 6.436-1.63 12.934-1.63 19.312 0 63.962 52.038 116 116 116zM192 384h192v-247.846c-110.094 28.606-192 129.124-192 247.846zM448 128v256h128v-256zM640 136.154v247.846h192c0-118.722-81.904-219.24-192-247.846z" />
<glyph unicode="&#xe9a3;" glyph-name="fa-hackernews" d="M0 960v-1024h1024v1024zM544 376v-216h-64v216l-175 328h72.6l134.4-252 134.4 252h72.6z" />
<glyph unicode="&#xe9a4;" glyph-name="fa-hammer" d="M1009.996 131.024l-301.544 301.544c-18.668 18.668-49.214 18.668-67.882 0l-22.626-22.626-184 184 302.056 302.058h-320l-142.058-142.058-14.060 14.058h-67.882v-67.882l14.058-14.058-206.058-206.060 160-160 206.058 206.058 184-184-22.626-22.626c-18.668-18.668-18.668-49.214 0-67.882l301.544-301.544c18.668-18.668 49.214-18.668 67.882 0l113.136 113.136c18.67 18.666 18.67 49.214 0.002 67.882z" />
<glyph unicode="&#xe9a5;" glyph-name="fa-hangouts" d="M511.8 960c-244.2 0-442.2-198-442.2-442.2 0-231.4 210.8-419 442.2-419v-162.8c268.6 136.2 442.6 355.6 442.6 581.8 0 244.2-198.4 442.2-442.6 442.2zM448 448c0-53-28.6-96-64-96v96h-128v192h192zM768 448c0-53-28.6-96-64-96v96h-128v192h192z" />
<glyph unicode="&#xe9a6;" glyph-name="fa-happy" d="M512 960c-282.77 0-512-229.23-512-512s229.23-512 512-512 512 229.23 512 512-229.23 512-512 512zM704 704c35.348 0 64-42.98 64-96s-28.652-96-64-96-64 42.98-64 96 28.652 96 64 96zM320 704c35.346 0 64-42.98 64-96s-28.654-96-64-96-64 42.98-64 96 28.654 96 64 96zM512 64c-166.868 0-305.422 139.872-320 318.304 93.77-54.114 204.050-85.064 320-85.064s226.23 30.806 320 84.92c-14.574-178.438-153.128-318.16-320-318.16z" />
<glyph unicode="&#xe9a7;" glyph-name="fa-headphones" d="M288 384h-64v-448h64c17.6 0 32 14.4 32 32v384c0 17.6-14.4 32-32 32zM736 384c-17.602 0-32-14.4-32-32v-384c0-17.6 14.398-32 32-32h64v448zM1024 448c0 282.77-229.23 512-512 512s-512-229.23-512-512c0-61.412 10.83-120.29 30.656-174.848-19.478-33.206-30.656-71.87-30.656-113.152 0-112.846 83.448-206.188 192-221.716v443.418c-31.914-4.566-61.664-15.842-87.754-32.378-5.392 26.718-8.246 54.364-8.246 82.676 0 229.75 186.25 416 416 416s416-186.25 416-416c0-28.314-2.83-55.968-8.22-82.696-26.1 16.546-55.854 27.848-87.78 32.418v-443.44c108.548 15.532 192 108.874 192 221.714 0 41.274-11.178 79.934-30.648 113.138 19.828 54.566 30.648 113.452 30.648 174.866z" />
<glyph unicode="&#xe9a8;" glyph-name="fa-heart" d="M755.188 896c-107.63 0-200.258-87.554-243.164-179-42.938 91.444-135.578 179-243.216 179-148.382 0-268.808-120.44-268.808-268.832 0-301.846 304.5-380.994 512.022-679.418 196.154 296.576 511.978 387.206 511.978 679.418 0 148.392-120.43 268.832-268.812 268.832z" />
<glyph unicode="&#xe9a9;" glyph-name="fa-heart-broken" d="M755.188 896c148.382 0 268.812-120.44 268.812-268.832 0-292.21-315.824-382.842-511.978-679.418-207.522 298.424-512.022 377.572-512.022 679.418 0 148.392 120.426 268.832 268.808 268.832 60.354 0 115.99-27.53 160.796-67.834l-77.604-124.166 224-128-128-320 352 384-224 128 61.896 92.846c35.42 21.768 75.21 35.154 117.292 35.154z" />
<glyph unicode="&#xe9aa;" glyph-name="fa-hipster" d="M512 960c-282.77 0-512-229.23-512-512s229.23-512 512-512 512 229.23 512 512-229.23 512-512 512zM704 704c35.346 0 64-28.654 64-64s-28.654-64-64-64-64 28.654-64 64 28.654 64 64 64zM320 704c35.346 0 64-28.654 64-64s-28.654-64-64-64-64 28.654-64 64 28.654 64 64 64zM543.8 280.624c-1.25 1.124-2.48 2.29-3.684 3.492-18.74 18.74-28.112 43.3-28.118 67.864-0.004-24.562-9.376-49.124-28.118-67.864-1.204-1.204-2.434-2.368-3.684-3.492-86.524-78.512-288.196 1.842-288.196 103.376 62-40 110.45-9.786 156.118 35.882 37.49 37.49 98.276 37.49 135.766 0 18.74-18.74 28.112-43.3 28.118-67.864 0.004 24.562 9.376 49.124 28.118 67.864 37.49 37.49 98.276 37.49 135.766 0 45.664-45.668 94.114-75.882 156.114-35.882 0-101.534-201.672-181.888-288.2-103.376z" />
<glyph unicode="&#xe9ab;" glyph-name="fa-history" horiz-adv-x="1088" d="M640 896c247.424 0 448-200.576 448-448s-200.576-448-448-448v96c94.024 0 182.418 36.614 248.902 103.098s103.098 154.878 103.098 248.902c0 94.022-36.614 182.418-103.098 248.902s-154.878 103.098-248.902 103.098c-94.022 0-182.418-36.614-248.902-103.098-51.14-51.138-84.582-115.246-97.306-184.902h186.208l-224-256-224 256h164.57c31.060 217.102 217.738 384 443.43 384zM832 512v-128h-256v320h128v-192z" />
<glyph unicode="&#xe9ac;" glyph-name="fa-hour-glass" d="M728.992 448c137.754 87.334 231.008 255.208 231.008 448 0 21.676-1.192 43.034-3.478 64h-889.042c-2.29-20.968-3.48-42.326-3.48-64 0-192.792 93.254-360.666 231.006-448-137.752-87.334-231.006-255.208-231.006-448 0-21.676 1.19-43.034 3.478-64h889.042c2.288 20.966 3.478 42.324 3.478 64 0.002 192.792-93.252 360.666-231.006 448zM160 0c0 186.912 80.162 345.414 224 397.708v100.586c-143.838 52.29-224 210.792-224 397.706v0h704c0-186.914-80.162-345.416-224-397.706v-100.586c143.838-52.294 224-210.796 224-397.708zM619.626 290.406c-71.654 40.644-75.608 93.368-75.626 125.366v64.228c0 31.994 3.804 84.914 75.744 125.664 38.504 22.364 71.808 56.348 97.048 98.336h-409.582c25.266-42.032 58.612-76.042 97.166-98.406 71.654-40.644 75.606-93.366 75.626-125.366v-64.228c0-31.992-3.804-84.914-75.744-125.664-72.622-42.18-126.738-125.684-143.090-226.336h501.67c-16.364 100.708-70.53 184.248-143.212 226.406z" />
<glyph unicode="&#xe9ad;" glyph-name="fa-html-five" d="M60.538 960l82.144-921.63 368.756-102.37 369.724 102.524 82.3 921.476zM784.63 658.572h-432.54l10.302-115.75h411.968l-31.042-347.010-231.844-64.254-231.572 64.254-15.83 177.512h113.494l8.048-90.232 125.862-33.916 0.278 0.078 125.934 33.992 13.070 146.55h-391.74l-30.494 341.8h566.214z" />
<glyph unicode="&#xe9ae;" glyph-name="fa-IE" d="M734.202 331.17h236.050c1.82 16.37 2.548 33.098 2.548 50.196 0 80.224-21.534 155.468-59.124 220.266 38.88 103.308 37.492 190.988-14.556 243.39-49.496 49.28-182.29 41.28-332.412-25.198-11.104 0.84-22.318 1.272-33.638 1.272-206.048 0-378.926-141.794-426.708-332.85 64.638 82.754 132.638 142.754 223.478 186.448-8.26-7.74-56.454-55.652-64.56-63.764-239.548-239.478-315.090-552.306-233.806-633.604 61.786-61.774 173.758-51.342 302.376 11.648 59.806-30.458 127.5-47.63 199.218-47.63 193.134 0 356.804 124.316 416.090 297.448h-237.868c-32.734-60.382-96.748-101.48-170.218-101.48-73.468 0-137.484 41.098-170.216 101.48-14.55 27.274-22.914 58.554-22.914 91.656v0.722zM348.302 447.196c5.456 97.11 86.2 174.584 184.766 174.584s179.312-77.472 184.766-174.584zM896.966 796.192c33.526-33.88 32.688-96.214 4.012-174.022-49.136 74.908-120.518 133.936-204.792 167.64 90.106 38.638 163.406 43.756 200.78 6.382zM93.482-7.256c-42.782 42.796-29.884 132.618 25.23 240.832 34.308-96.27 101.156-177.090 187.336-229.154-95.43-43.318-173.536-50.674-212.566-11.678z" />
<glyph unicode="&#xe9af;" glyph-name="fa-image" d="M959.884 832c0.040-0.034 0.082-0.076 0.116-0.116v-767.77c-0.034-0.040-0.076-0.082-0.116-0.116h-895.77c-0.040 0.034-0.082 0.076-0.114 0.116v767.772c0.034 0.040 0.076 0.082 0.114 0.114zM960 896h-896c-35.2 0-64-28.8-64-64v-768c0-35.2 28.8-64 64-64h896c35.2 0 64 28.8 64 64v768c0 35.2-28.8 64-64 64zM832 672c0-53.020-42.98-96-96-96s-96 42.98-96 96 42.98 96 96 96 96-42.98 96-96zM896 128h-768v128l224 384 256-320h64l224 192z" />
</font>
</defs>
</svg>
